<svg width="1940" height="343" viewBox="0 0 1940 343" fill="none" xmlns="http://www.w3.org/2000/svg">
<g clip-path="url(#clip0_12_13)">
<rect width="1940" height="343" fill="white"/>
<rect x="-3.89996" width="80.3148" height="20.5514" rx="3" fill="#E14646" fill-opacity="0.3"/>
<path d="M3.75291 14V3.81818H7.19325C7.98871 3.81818 8.64164 3.95407 9.15206 4.22585C9.66248 4.49432 10.0403 4.86387 10.2856 5.33452C10.5308 5.80516 10.6535 6.34044 10.6535 6.94034C10.6535 7.54025 10.5308 8.07221 10.2856 8.53622C10.0403 9.00024 9.66413 9.36482 9.15703 9.62997C8.64993 9.89181 8.00197 10.0227 7.21314 10.0227H4.42905V8.90909H7.17337C7.71693 8.90909 8.15443 8.82955 8.48587 8.67045C8.82062 8.51136 9.06257 8.28598 9.21172 7.99432C9.36418 7.69934 9.44041 7.34801 9.44041 6.94034C9.44041 6.53267 9.36418 6.17637 9.21172 5.87145C9.05926 5.56652 8.81565 5.3312 8.4809 5.16548C8.14614 4.99645 7.70367 4.91193 7.15348 4.91193H4.98587V14H3.75291ZM8.54553 9.42614L11.0512 14H9.61939L7.15348 9.42614H8.54553ZM15.6686 14.1591C14.9328 14.1591 14.2981 13.9967 13.7645 13.6719C13.2342 13.3438 12.8248 12.8864 12.5365 12.2997C12.2514 11.7098 12.1089 11.0237 12.1089 10.2415C12.1089 9.45928 12.2514 8.76989 12.5365 8.1733C12.8248 7.57339 13.2259 7.10606 13.7396 6.77131C14.2566 6.43324 14.8599 6.2642 15.5493 6.2642C15.947 6.2642 16.3397 6.33049 16.7275 6.46307C17.1153 6.59564 17.4683 6.81108 17.7865 7.10938C18.1047 7.40436 18.3582 7.79545 18.5471 8.28267C18.736 8.76989 18.8305 9.36979 18.8305 10.0824V10.5795H12.9441V9.56534H17.6373C17.6373 9.13447 17.5511 8.75 17.3788 8.41193C17.2098 8.07386 16.9678 7.80705 16.6529 7.61151C16.3414 7.41596 15.9735 7.31818 15.5493 7.31818C15.0819 7.31818 14.6776 7.43419 14.3362 7.66619C13.9981 7.89489 13.7379 8.19318 13.5556 8.56108C13.3734 8.92898 13.2822 9.32339 13.2822 9.74432V10.4205C13.2822 10.9972 13.3816 11.486 13.5805 11.8871C13.7827 12.2848 14.0627 12.5881 14.4207 12.7969C14.7787 13.0024 15.1946 13.1051 15.6686 13.1051C15.9768 13.1051 16.2552 13.062 16.5038 12.9759C16.7557 12.8864 16.9728 12.7538 17.1551 12.5781C17.3374 12.3991 17.4782 12.1771 17.5777 11.9119L18.7112 12.2301C18.5919 12.6146 18.3913 12.9527 18.1096 13.2443C17.8279 13.5327 17.4799 13.758 17.0656 13.9205C16.6513 14.0795 16.1856 14.1591 15.6686 14.1591ZM23.4988 14.1591C22.8625 14.1591 22.3007 13.9983 21.8135 13.6768C21.3262 13.352 20.9451 12.8946 20.67 12.3047C20.3949 11.7114 20.2574 11.0104 20.2574 10.2017C20.2574 9.39962 20.3949 8.7036 20.67 8.11364C20.9451 7.52367 21.3279 7.06794 21.8184 6.74645C22.309 6.42495 22.8757 6.2642 23.5187 6.2642C24.0159 6.2642 24.4086 6.34706 24.697 6.51278C24.9886 6.67519 25.2107 6.8608 25.3632 7.0696C25.519 7.27509 25.6399 7.44413 25.7261 7.5767H25.8255V3.81818H26.9988V14H25.8653V12.8267H25.7261C25.6399 12.9659 25.5173 13.1416 25.3582 13.3537C25.1991 13.5625 24.9721 13.7498 24.6771 13.9155C24.3821 14.0779 23.9894 14.1591 23.4988 14.1591ZM23.6579 13.1051C24.1286 13.1051 24.5263 12.9825 24.8511 12.7372C25.1759 12.4886 25.4228 12.1456 25.5919 11.7081C25.7609 11.2673 25.8454 10.7585 25.8454 10.1818C25.8454 9.61174 25.7626 9.11293 25.5968 8.68537C25.4311 8.2545 25.1859 7.91974 24.861 7.68111C24.5362 7.43916 24.1352 7.31818 23.6579 7.31818C23.1608 7.31818 22.7465 7.44579 22.415 7.70099C22.0869 7.95289 21.84 8.29593 21.6743 8.73011C21.5119 9.16098 21.4306 9.64489 21.4306 10.1818C21.4306 10.7254 21.5135 11.2192 21.6792 11.6634C21.8483 12.1042 22.0968 12.4555 22.425 12.7173C22.7564 12.9759 23.1674 13.1051 23.6579 13.1051ZM36.5691 6.36364V7.35795H32.6118V6.36364H36.5691ZM33.7652 4.53409H34.9385V11.8125C34.9385 12.1439 34.9865 12.3925 35.0826 12.5582C35.1821 12.7206 35.308 12.83 35.4605 12.8864C35.6163 12.9394 35.7803 12.9659 35.9527 12.9659C36.0819 12.9659 36.188 12.9593 36.2708 12.946C36.3537 12.9295 36.42 12.9162 36.4697 12.9062L36.7083 13.9602C36.6288 13.9901 36.5178 14.0199 36.3752 14.0497C36.2327 14.0829 36.0521 14.0994 35.8333 14.0994C35.5019 14.0994 35.1771 14.0282 34.8589 13.8857C34.544 13.7431 34.2822 13.526 34.0734 13.2344C33.8679 12.9427 33.7652 12.5748 33.7652 12.1307V4.53409ZM40.5812 14.179C40.0973 14.179 39.6582 14.0878 39.2637 13.9055C38.8693 13.7199 38.5561 13.4531 38.3241 13.1051C38.0921 12.7538 37.9761 12.3295 37.9761 11.8324C37.9761 11.3949 38.0623 11.0402 38.2346 10.7685C38.407 10.4934 38.6373 10.2779 38.9257 10.1222C39.214 9.96638 39.5322 9.85038 39.8802 9.77415C40.2315 9.6946 40.5845 9.63163 40.9392 9.58523C41.4032 9.52557 41.7794 9.48082 42.0677 9.45099C42.3594 9.41785 42.5715 9.36316 42.7041 9.28693C42.84 9.2107 42.9079 9.07812 42.9079 8.8892V8.84943C42.9079 8.3589 42.7737 7.97775 42.5052 7.70597C42.2401 7.43419 41.8374 7.2983 41.2971 7.2983C40.737 7.2983 40.2978 7.42093 39.9797 7.66619C39.6615 7.91146 39.4377 8.1733 39.3085 8.4517L38.1949 8.05398C38.3937 7.58996 38.6589 7.22869 38.9903 6.97017C39.3251 6.70833 39.6896 6.52604 40.0841 6.4233C40.4818 6.31723 40.8729 6.2642 41.2574 6.2642C41.5026 6.2642 41.7843 6.29403 42.1025 6.35369C42.424 6.41004 42.7339 6.5277 43.0322 6.70668C43.3338 6.88565 43.5841 7.15578 43.7829 7.51705C43.9818 7.87831 44.0812 8.36222 44.0812 8.96875V14H42.9079V12.9659H42.8483C42.7687 13.1316 42.6361 13.3089 42.4505 13.4979C42.2649 13.6868 42.018 13.8475 41.7098 13.9801C41.4015 14.1127 41.0253 14.179 40.5812 14.179ZM40.7602 13.125C41.2242 13.125 41.6153 13.0339 41.9335 12.8516C42.255 12.6693 42.4969 12.4339 42.6593 12.1456C42.8251 11.8572 42.9079 11.554 42.9079 11.2358V10.1619C42.8582 10.2216 42.7488 10.2763 42.5798 10.326C42.4141 10.3724 42.2218 10.4138 42.0031 10.4503C41.7877 10.4834 41.5772 10.5133 41.3717 10.5398C41.1695 10.563 41.0055 10.5829 40.8795 10.5994C40.5746 10.6392 40.2895 10.7038 40.0244 10.7933C39.7626 10.8795 39.5504 11.0104 39.388 11.1861C39.2289 11.3584 39.1494 11.5937 39.1494 11.892C39.1494 12.2997 39.3002 12.608 39.6018 12.8168C39.9067 13.0223 40.2929 13.125 40.7602 13.125ZM49.3051 17.0227C48.7384 17.0227 48.2511 16.9498 47.8435 16.804C47.4358 16.6615 47.0961 16.4725 46.8243 16.2372C46.5558 16.0052 46.342 15.7566 46.183 15.4915L47.1176 14.8352C47.2237 14.9744 47.3579 15.1335 47.5203 15.3125C47.6827 15.4948 47.9048 15.6522 48.1865 15.7848C48.4715 15.9207 48.8444 15.9886 49.3051 15.9886C49.9216 15.9886 50.4304 15.8395 50.8314 15.5412C51.2324 15.2429 51.433 14.7756 51.433 14.1392V12.5881H51.3335C51.2473 12.7273 51.1247 12.8996 50.9656 13.1051C50.8098 13.3073 50.5845 13.4879 50.2895 13.647C49.9978 13.8028 49.6034 13.8807 49.1063 13.8807C48.4898 13.8807 47.9363 13.7348 47.4457 13.4432C46.9585 13.1515 46.5724 12.7273 46.2874 12.1705C46.0056 11.6136 45.8648 10.9375 45.8648 10.142C45.8648 9.35985 46.0023 8.67874 46.2774 8.09872C46.5525 7.51539 46.9353 7.06463 47.4259 6.74645C47.9164 6.42495 48.4831 6.2642 49.1261 6.2642C49.6233 6.2642 50.0177 6.34706 50.3094 6.51278C50.6044 6.67519 50.8297 6.8608 50.9855 7.0696C51.1446 7.27509 51.2672 7.44413 51.3534 7.5767H51.4727V6.36364H52.6063V14.2188C52.6063 14.875 52.4571 15.4086 52.1588 15.8196C51.8638 16.2339 51.4661 16.5372 50.9656 16.7294C50.4685 16.925 49.915 17.0227 49.3051 17.0227ZM49.2653 12.8267C49.736 12.8267 50.1337 12.719 50.4585 12.5036C50.7833 12.2881 51.0303 11.9782 51.1993 11.5739C51.3683 11.1695 51.4528 10.6856 51.4528 10.1222C51.4528 9.57197 51.37 9.08641 51.2043 8.66548C51.0385 8.24455 50.7933 7.91477 50.4685 7.67614C50.1437 7.4375 49.7426 7.31818 49.2653 7.31818C48.7682 7.31818 48.3539 7.44413 48.0224 7.69602C47.6943 7.94792 47.4474 8.28598 47.2817 8.71023C47.1193 9.13447 47.0381 9.60511 47.0381 10.1222C47.0381 10.6525 47.1209 11.1214 47.2866 11.5291C47.4557 11.9335 47.7043 12.2517 48.0324 12.4837C48.3638 12.7124 48.7748 12.8267 49.2653 12.8267Z" fill="#37352F"/>
<path d="M-4.00006 0H1944V343H-4.00006V0Z" fill="#CCFFE2"/>
<path fill-rule="evenodd" clip-rule="evenodd" d="M1943.55 237.165V342.999H475.378C535.532 293.688 599.914 248.213 668.418 207.173C1082.63 -40.9795 1540.57 29.3662 1943.55 237.165Z" fill="#FFECEA"/>
<path fill-rule="evenodd" clip-rule="evenodd" d="M1373.87 169.08C1373.93 113.585 1408.92 58.5252 1467.21 46.2886C1518.96 35.4249 1554.8 83.747 1584.16 124.933C1611.76 163.654 1640.07 210.579 1611.16 248.223C1579.64 289.281 1518.29 294.69 1466.96 277.572C1415.17 260.296 1373.82 220.063 1373.87 169.08Z" fill="#0018A4"/>
<path fill-rule="evenodd" clip-rule="evenodd" d="M135.668 64.0355C166.613 63.0843 197.932 81.711 205.784 114.146C212.755 142.942 186.443 163.876 163.996 181.054C142.892 197.204 117.227 213.893 95.7255 198.369C72.2754 181.438 68.1763 147.165 76.8157 118.11C85.5344 88.7876 107.239 64.9093 135.668 64.0355Z" fill="white"/>
<rect x="-4" width="1944" height="100" fill="#0018A4"/>
<path d="M-18.3259 56.424H-20.3349C-25.3779 56.424 -29.0679 52.447 -29.0679 47.65C-29.0679 42.812 -25.3779 38.876 -20.3349 38.876H-18.3259V39.532H-20.3349C-24.9679 39.532 -28.4119 43.14 -28.4119 47.65C-28.4119 52.119 -24.9679 55.768 -20.3349 55.768H-18.3259V56.424ZM-18.3259 62H-20.3349C-28.2889 62 -34.6439 55.563 -34.6439 47.65C-34.6439 39.737 -28.2889 33.3 -20.3349 33.3H-18.3259V33.956H-20.3349C-27.9609 33.956 -33.9879 40.065 -33.9879 47.65C-33.9879 55.235 -27.9609 61.344 -20.3349 61.344H-18.3259V62ZM-5.55348 62.492C-11.8265 62.492 -16.9105 57.408 -16.9105 51.135C-16.9105 44.862 -11.8265 39.778 -5.55348 39.778C0.719517 39.778 5.80352 44.862 5.80352 51.135C5.80352 57.408 0.719517 62.492 -5.55348 62.492ZM-5.55348 61.836C0.350517 61.836 5.14752 57.039 5.14752 51.135C5.14752 45.231 0.350517 40.434 -5.55348 40.434C-11.4575 40.434 -16.2545 45.231 -16.2545 51.135C-16.2545 57.039 -11.4575 61.836 -5.55348 61.836ZM-5.55348 56.916C-8.75148 56.916 -11.3345 54.333 -11.3345 51.135C-11.3345 47.937 -8.75148 45.354 -5.55348 45.354C-2.35548 45.354 0.227516 47.937 0.227516 51.135C0.227516 54.333 -2.35548 56.916 -5.55348 56.916ZM-5.55348 56.26C-2.72448 56.26 -0.428484 53.964 -0.428484 51.135C-0.428484 48.306 -2.72448 46.01 -5.55348 46.01C-8.38248 46.01 -10.6785 48.306 -10.6785 51.135C-10.6785 53.964 -8.38248 56.26 -5.55348 56.26ZM7.51334 51.135C7.51334 44.862 12.5973 39.778 18.8703 39.778C20.7153 39.778 22.4373 40.229 23.9953 41.008V31.25H24.6513V41.377C26.9473 42.648 28.7103 44.944 29.5713 47.322V31.25H30.2273V62H29.5713V54.907C28.7513 57.244 26.9473 59.663 24.6513 60.934V62H23.9953V61.262C22.4373 62.041 20.7153 62.492 18.8703 62.492C12.5973 62.492 7.51334 57.408 7.51334 51.135ZM8.16934 51.135C8.16934 57.039 12.9663 61.836 18.8703 61.836C20.7153 61.836 22.4783 61.385 23.9953 60.565V53.841C23.0113 55.645 21.0843 56.916 18.8703 56.916C15.6723 56.916 13.0893 54.333 13.0893 51.135C13.0893 47.937 15.6723 45.354 18.8703 45.354C21.0843 45.354 23.0113 46.625 23.9953 48.47V41.746C22.4783 40.926 20.7153 40.434 18.8703 40.434C12.9663 40.434 8.16934 45.231 8.16934 51.135ZM13.7453 51.135C13.7453 53.964 16.0413 56.26 18.8703 56.26C21.7403 56.26 23.9953 53.964 23.9953 51.135C23.9953 48.306 21.7403 46.01 18.8703 46.01C16.0413 46.01 13.7453 48.306 13.7453 51.135ZM24.6513 42.115V60.155C27.3983 58.474 29.5713 55.071 29.5713 51.135C29.5713 47.199 27.3983 43.796 24.6513 42.115ZM33.1784 51.135C33.1784 44.862 38.2624 39.778 44.5354 39.778C49.5374 39.778 53.7604 42.976 55.2774 47.486L41.9524 55.563C42.7314 56.014 43.5924 56.26 44.5354 56.26C46.5854 56.26 48.3484 55.03 49.1684 53.308L49.7834 53.595C48.8814 55.563 46.8724 56.916 44.5354 56.916C43.3464 56.916 42.2394 56.547 41.3374 55.932L36.9094 58.638C38.8364 60.606 41.5424 61.836 44.5354 61.836C48.7994 61.836 52.5304 59.294 54.2524 55.645L54.8264 55.932C53.0224 59.827 49.0864 62.492 44.5354 62.492C38.2624 62.492 33.1784 57.408 33.1784 51.135ZM33.8344 51.135C33.8344 52.324 34.0394 53.431 34.3674 54.497L38.7954 51.791C38.7544 51.586 38.7544 51.34 38.7544 51.135C38.7544 47.937 41.3374 45.354 44.5354 45.354C45.7244 45.354 46.8724 45.723 47.7744 46.338L52.1614 43.673C50.2344 41.664 47.5284 40.434 44.5354 40.434C38.6314 40.434 33.8344 45.231 33.8344 51.135ZM34.6134 55.112C35.0644 56.219 35.6794 57.244 36.4584 58.146L40.7634 55.522C39.8614 54.743 39.2054 53.677 38.9184 52.488L34.6134 55.112ZM39.4104 51.135V51.422L47.1594 46.707C46.3804 46.256 45.4784 46.01 44.5354 46.01C41.7064 46.01 39.4104 48.306 39.4104 51.135ZM39.4924 52.16C39.7384 53.349 40.4354 54.415 41.3784 55.153L49.5784 50.151C49.3324 48.962 48.6764 47.896 47.7334 47.117L39.4924 52.16ZM48.3484 46.789C49.2504 47.568 49.9064 48.593 50.1524 49.823L54.4984 47.158C54.0474 46.051 53.3914 45.067 52.6534 44.165L48.3484 46.789ZM72.6441 61.344H83.5091V62H66.4121V33.3H83.5091V33.956H72.6441V38.876H83.5091V39.532H72.6441V44.534H80.5571V45.19H72.6441V50.11H80.5571V50.766H72.6441V55.768H83.5091V56.424H72.6441V61.344ZM67.0681 39.532V44.534H71.9881V39.532H67.0681ZM71.9881 56.424H67.0681V61.344H71.9881V56.424ZM71.9881 33.956H67.0681V38.876H71.9881V33.956ZM71.9881 45.19H67.0681V50.11H71.9881V45.19ZM67.0681 50.766V55.768H71.9881V50.766H67.0681ZM92.1028 40.27L95.6698 45.682L99.2778 40.27H100.098L96.0798 46.297L98.8678 50.52L105.674 40.27H106.494L99.2778 51.135L106.494 62H105.674L98.8678 51.75L96.0798 55.973L100.098 62H99.2778L95.7108 56.588L92.1028 62H91.2828L95.3008 55.973L92.4718 51.75L85.7068 62H84.8867L92.0618 51.135L84.8867 40.27H85.7068L92.4718 50.52L95.2598 46.297L91.2828 40.27H92.1028ZM95.6698 55.358L98.4578 51.135L95.6698 46.912L92.8818 51.135L95.6698 55.358ZM123.147 42.115V60.155C125.894 58.474 128.067 55.071 128.067 51.135C128.067 47.199 125.894 43.796 123.147 42.115ZM117.366 39.778C119.211 39.778 120.933 40.229 122.491 41.008V40.27H123.147V41.377C125.443 42.648 127.206 44.944 128.067 47.322V40.27H128.723V62H128.067V54.907C127.247 57.244 125.443 59.663 123.147 60.934V62H122.491V61.262C120.933 62.041 119.211 62.492 117.366 62.492C111.093 62.492 106.009 57.408 106.009 51.135C106.009 44.862 111.093 39.778 117.366 39.778ZM117.366 61.836C119.211 61.836 120.974 61.385 122.491 60.565V53.841C121.507 55.645 119.58 56.916 117.366 56.916C114.168 56.916 111.585 54.333 111.585 51.135C111.585 47.937 114.168 45.354 117.366 45.354C119.58 45.354 121.507 46.625 122.491 48.47V41.746C120.974 40.926 119.211 40.434 117.366 40.434C111.462 40.434 106.665 45.231 106.665 51.135C106.665 57.039 111.462 61.836 117.366 61.836ZM117.366 56.26C120.236 56.26 122.491 53.964 122.491 51.135C122.491 48.306 120.236 46.01 117.366 46.01C114.537 46.01 112.241 48.306 112.241 51.135C112.241 53.964 114.537 56.26 117.366 56.26ZM132.904 62V40.27H133.56V45.969C134.462 43.714 136.266 41.869 138.48 40.885V40.27H139.136V40.639C140.079 40.311 141.145 40.106 142.211 40.106C144.589 40.106 146.762 41.008 148.402 42.484C150.042 41.008 152.215 40.106 154.593 40.106C159.718 40.106 163.9 44.288 163.9 49.413V62H163.244V49.413C163.244 44.657 159.349 40.762 154.593 40.762C152.42 40.762 150.411 41.582 148.894 42.935C150.124 44.206 150.985 45.805 151.354 47.609C151.969 46.461 153.199 45.682 154.593 45.682C156.643 45.682 158.324 47.363 158.324 49.413V62H157.668V49.413C157.668 47.732 156.274 46.338 154.593 46.338C152.912 46.338 151.518 47.732 151.518 49.413V62H150.862V49.413C150.862 47.076 149.919 44.944 148.402 43.386C146.885 44.944 145.942 47.076 145.942 49.413V62H145.286V49.413C145.286 47.732 143.892 46.338 142.211 46.338C140.53 46.338 139.136 47.732 139.136 49.413V62H138.48V41.623C135.569 43.017 133.56 46.01 133.56 49.413V62H132.904ZM139.136 41.336V47.322C139.792 46.338 140.94 45.682 142.211 45.682C143.605 45.682 144.835 46.461 145.45 47.609C145.819 45.805 146.68 44.206 147.91 42.935C146.393 41.582 144.384 40.762 142.211 40.762C141.145 40.762 140.079 40.967 139.136 41.336ZM173.355 60.155V42.115C170.608 43.796 168.435 47.199 168.435 51.135C168.435 55.071 170.608 58.474 173.355 60.155ZM179.136 62.492C177.291 62.492 175.569 62.041 174.011 61.262V71.02H173.355V60.893C171.059 59.622 169.255 57.285 168.435 54.948V71.02H167.779V40.27H168.435V47.363C169.255 44.985 171.059 42.607 173.355 41.336V40.27H174.011V41.008C175.569 40.229 177.291 39.778 179.136 39.778C185.409 39.778 190.493 44.862 190.493 51.135C190.493 57.408 185.409 62.492 179.136 62.492ZM179.136 56.916C176.922 56.916 174.995 55.645 174.011 53.8V60.524C175.528 61.344 177.291 61.836 179.136 61.836C185.04 61.836 189.837 57.039 189.837 51.135C189.837 45.231 185.04 40.434 179.136 40.434C177.291 40.434 175.528 40.885 174.011 41.705V48.429C174.995 46.625 176.922 45.354 179.136 45.354C182.334 45.354 184.917 47.937 184.917 51.135C184.917 54.333 182.334 56.916 179.136 56.916ZM179.136 46.01C176.266 46.01 174.011 48.306 174.011 51.135C174.011 53.964 176.266 56.26 179.136 56.26C181.965 56.26 184.261 53.964 184.261 51.135C184.261 48.306 181.965 46.01 179.136 46.01ZM194.1 31.25V62H193.444V31.25H194.1ZM199.676 31.25V62H199.02V31.25H199.676ZM202.624 51.135C202.624 44.862 207.708 39.778 213.981 39.778C218.983 39.778 223.206 42.976 224.723 47.486L211.398 55.563C212.177 56.014 213.038 56.26 213.981 56.26C216.031 56.26 217.794 55.03 218.614 53.308L219.229 53.595C218.327 55.563 216.318 56.916 213.981 56.916C212.792 56.916 211.685 56.547 210.783 55.932L206.355 58.638C208.282 60.606 210.988 61.836 213.981 61.836C218.245 61.836 221.976 59.294 223.698 55.645L224.272 55.932C222.468 59.827 218.532 62.492 213.981 62.492C207.708 62.492 202.624 57.408 202.624 51.135ZM203.28 51.135C203.28 52.324 203.485 53.431 203.813 54.497L208.241 51.791C208.2 51.586 208.2 51.34 208.2 51.135C208.2 47.937 210.783 45.354 213.981 45.354C215.17 45.354 216.318 45.723 217.22 46.338L221.607 43.673C219.68 41.664 216.974 40.434 213.981 40.434C208.077 40.434 203.28 45.231 203.28 51.135ZM204.059 55.112C204.51 56.219 205.125 57.244 205.904 58.146L210.209 55.522C209.307 54.743 208.651 53.677 208.364 52.488L204.059 55.112ZM208.856 51.135V51.422L216.605 46.707C215.826 46.256 214.924 46.01 213.981 46.01C211.152 46.01 208.856 48.306 208.856 51.135ZM208.938 52.16C209.184 53.349 209.881 54.415 210.824 55.153L219.024 50.151C218.778 48.962 218.122 47.896 217.179 47.117L208.938 52.16ZM217.794 46.789C218.696 47.568 219.352 48.593 219.598 49.823L223.944 47.158C223.493 46.051 222.837 45.067 222.099 44.165L217.794 46.789ZM248.649 62H247.993L242.089 46.871V62H241.433V39.532H236.513V62H235.857V33.3H245C250.248 33.3 254.43 37.482 254.43 42.73C254.43 46.912 252.339 49.372 249.92 50.889L254.225 62H253.569L249.387 51.217C248.198 51.914 246.517 52.529 245.123 52.939L248.649 62ZM247.747 45.313L249.674 50.274C251.888 48.88 253.774 46.584 253.774 42.73C253.774 37.81 249.92 33.956 245 33.956H242.089V38.876H245C247.132 38.876 248.854 40.598 248.854 42.73C248.854 43.714 248.485 44.575 247.747 45.313ZM242.089 39.532V46.871L243.647 46.543C246.845 45.846 248.198 44.493 248.198 42.73C248.198 40.926 246.804 39.532 245 39.532H242.089ZM236.513 33.956V38.876H241.433V33.956H236.513ZM249.141 50.602L247.255 45.764C246.025 46.707 244.59 47.035 242.991 47.363L244.877 52.283C246.107 51.955 248.116 51.217 249.141 50.602ZM255.916 51.135C255.916 44.862 261 39.778 267.273 39.778C272.275 39.778 276.498 42.976 278.015 47.486L264.69 55.563C265.469 56.014 266.33 56.26 267.273 56.26C269.323 56.26 271.086 55.03 271.906 53.308L272.521 53.595C271.619 55.563 269.61 56.916 267.273 56.916C266.084 56.916 264.977 56.547 264.075 55.932L259.647 58.638C261.574 60.606 264.28 61.836 267.273 61.836C271.537 61.836 275.268 59.294 276.99 55.645L277.564 55.932C275.76 59.827 271.824 62.492 267.273 62.492C261 62.492 255.916 57.408 255.916 51.135ZM256.572 51.135C256.572 52.324 256.777 53.431 257.105 54.497L261.533 51.791C261.492 51.586 261.492 51.34 261.492 51.135C261.492 47.937 264.075 45.354 267.273 45.354C268.462 45.354 269.61 45.723 270.512 46.338L274.899 43.673C272.972 41.664 270.266 40.434 267.273 40.434C261.369 40.434 256.572 45.231 256.572 51.135ZM257.351 55.112C257.802 56.219 258.417 57.244 259.196 58.146L263.501 55.522C262.599 54.743 261.943 53.677 261.656 52.488L257.351 55.112ZM262.148 51.135V51.422L269.897 46.707C269.118 46.256 268.216 46.01 267.273 46.01C264.444 46.01 262.148 48.306 262.148 51.135ZM262.23 52.16C262.476 53.349 263.173 54.415 264.116 55.153L272.316 50.151C272.07 48.962 271.414 47.896 270.471 47.117L262.23 52.16ZM271.086 46.789C271.988 47.568 272.644 48.593 272.89 49.823L277.236 47.158C276.785 46.051 276.129 45.067 275.391 44.165L271.086 46.789ZM295.916 42.115V60.155C298.663 58.474 300.836 55.071 300.836 51.135C300.836 47.199 298.663 43.796 295.916 42.115ZM290.135 39.778C291.98 39.778 293.702 40.229 295.26 41.008V40.27H295.916V41.377C298.212 42.648 299.975 44.944 300.836 47.322V40.27H301.492V62H300.836V54.907C300.016 57.244 298.212 59.663 295.916 60.934V62H295.26V61.262C293.702 62.041 291.98 62.492 290.135 62.492C283.862 62.492 278.778 57.408 278.778 51.135C278.778 44.862 283.862 39.778 290.135 39.778ZM290.135 61.836C291.98 61.836 293.743 61.385 295.26 60.565V53.841C294.276 55.645 292.349 56.916 290.135 56.916C286.937 56.916 284.354 54.333 284.354 51.135C284.354 47.937 286.937 45.354 290.135 45.354C292.349 45.354 294.276 46.625 295.26 48.47V41.746C293.743 40.926 291.98 40.434 290.135 40.434C284.231 40.434 279.434 45.231 279.434 51.135C279.434 57.039 284.231 61.836 290.135 61.836ZM290.135 56.26C293.005 56.26 295.26 53.964 295.26 51.135C295.26 48.306 293.005 46.01 290.135 46.01C287.306 46.01 285.01 48.306 285.01 51.135C285.01 53.964 287.306 56.26 290.135 56.26ZM316.538 45.846V46.502H315.349C312.848 46.502 310.716 48.634 310.716 51.135C310.716 53.636 312.848 55.768 315.349 55.768H316.538V56.424H315.349C312.479 56.424 310.06 54.005 310.06 51.135C310.06 48.265 312.479 45.846 315.349 45.846H316.538ZM316.538 40.926H315.349C309.732 40.926 305.14 45.518 305.14 51.135C305.14 56.752 309.732 61.344 315.349 61.344H316.538V62H315.349C309.363 62 304.484 57.121 304.484 51.135C304.484 45.149 309.363 40.27 315.349 40.27H316.538V40.926ZM322.057 40.926H318.818V40.27H322.057V33.3H322.713V40.27H327.633V33.3H328.289V40.27H331.528V40.926H328.289V45.846H331.528V46.502H328.289V62H327.633V46.502H322.713V62H322.057V46.502H318.818V45.846H322.057V40.926ZM327.633 40.926H322.713V45.846H327.633V40.926ZM358.362 56.424H356.353C351.31 56.424 347.62 52.447 347.62 47.65C347.62 42.812 351.31 38.876 356.353 38.876H358.362V39.532H356.353C351.72 39.532 348.276 43.14 348.276 47.65C348.276 52.119 351.72 55.768 356.353 55.768H358.362V56.424ZM358.362 62H356.353C348.399 62 342.044 55.563 342.044 47.65C342.044 39.737 348.399 33.3 356.353 33.3H358.362V33.956H356.353C348.727 33.956 342.7 40.065 342.7 47.65C342.7 55.235 348.727 61.344 356.353 61.344H358.362V62ZM371.134 62.492C364.861 62.492 359.777 57.408 359.777 51.135C359.777 44.862 364.861 39.778 371.134 39.778C377.407 39.778 382.491 44.862 382.491 51.135C382.491 57.408 377.407 62.492 371.134 62.492ZM371.134 61.836C377.038 61.836 381.835 57.039 381.835 51.135C381.835 45.231 377.038 40.434 371.134 40.434C365.23 40.434 360.433 45.231 360.433 51.135C360.433 57.039 365.23 61.836 371.134 61.836ZM371.134 56.916C367.936 56.916 365.353 54.333 365.353 51.135C365.353 47.937 367.936 45.354 371.134 45.354C374.332 45.354 376.915 47.937 376.915 51.135C376.915 54.333 374.332 56.916 371.134 56.916ZM371.134 56.26C373.963 56.26 376.259 53.964 376.259 51.135C376.259 48.306 373.963 46.01 371.134 46.01C368.305 46.01 366.009 48.306 366.009 51.135C366.009 53.964 368.305 56.26 371.134 56.26ZM384.201 51.135C384.201 44.862 389.285 39.778 395.558 39.778C397.403 39.778 399.125 40.229 400.683 41.008V31.25H401.339V41.377C403.635 42.648 405.398 44.944 406.259 47.322V31.25H406.915V62H406.259V54.907C405.439 57.244 403.635 59.663 401.339 60.934V62H400.683V61.262C399.125 62.041 397.403 62.492 395.558 62.492C389.285 62.492 384.201 57.408 384.201 51.135ZM384.857 51.135C384.857 57.039 389.654 61.836 395.558 61.836C397.403 61.836 399.166 61.385 400.683 60.565V53.841C399.699 55.645 397.772 56.916 395.558 56.916C392.36 56.916 389.777 54.333 389.777 51.135C389.777 47.937 392.36 45.354 395.558 45.354C397.772 45.354 399.699 46.625 400.683 48.47V41.746C399.166 40.926 397.403 40.434 395.558 40.434C389.654 40.434 384.857 45.231 384.857 51.135ZM390.433 51.135C390.433 53.964 392.729 56.26 395.558 56.26C398.428 56.26 400.683 53.964 400.683 51.135C400.683 48.306 398.428 46.01 395.558 46.01C392.729 46.01 390.433 48.306 390.433 51.135ZM401.339 42.115V60.155C404.086 58.474 406.259 55.071 406.259 51.135C406.259 47.199 404.086 43.796 401.339 42.115ZM409.866 51.135C409.866 44.862 414.95 39.778 421.223 39.778C426.225 39.778 430.448 42.976 431.965 47.486L418.64 55.563C419.419 56.014 420.28 56.26 421.223 56.26C423.273 56.26 425.036 55.03 425.856 53.308L426.471 53.595C425.569 55.563 423.56 56.916 421.223 56.916C420.034 56.916 418.927 56.547 418.025 55.932L413.597 58.638C415.524 60.606 418.23 61.836 421.223 61.836C425.487 61.836 429.218 59.294 430.94 55.645L431.514 55.932C429.71 59.827 425.774 62.492 421.223 62.492C414.95 62.492 409.866 57.408 409.866 51.135ZM410.522 51.135C410.522 52.324 410.727 53.431 411.055 54.497L415.483 51.791C415.442 51.586 415.442 51.34 415.442 51.135C415.442 47.937 418.025 45.354 421.223 45.354C422.412 45.354 423.56 45.723 424.462 46.338L428.849 43.673C426.922 41.664 424.216 40.434 421.223 40.434C415.319 40.434 410.522 45.231 410.522 51.135ZM411.301 55.112C411.752 56.219 412.367 57.244 413.146 58.146L417.451 55.522C416.549 54.743 415.893 53.677 415.606 52.488L411.301 55.112ZM416.098 51.135V51.422L423.847 46.707C423.068 46.256 422.166 46.01 421.223 46.01C418.394 46.01 416.098 48.306 416.098 51.135ZM416.18 52.16C416.426 53.349 417.123 54.415 418.066 55.153L426.266 50.151C426.02 48.962 425.364 47.896 424.421 47.117L416.18 52.16ZM425.036 46.789C425.938 47.568 426.594 48.593 426.84 49.823L431.186 47.158C430.735 46.051 430.079 45.067 429.341 44.165L425.036 46.789ZM449.332 61.344H460.197V62H443.1V33.3H460.197V33.956H449.332V38.876H460.197V39.532H449.332V44.534H457.245V45.19H449.332V50.11H457.245V50.766H449.332V55.768H460.197V56.424H449.332V61.344ZM443.756 39.532V44.534H448.676V39.532H443.756ZM448.676 56.424H443.756V61.344H448.676V56.424ZM448.676 33.956H443.756V38.876H448.676V33.956ZM448.676 45.19H443.756V50.11H448.676V45.19ZM443.756 50.766V55.768H448.676V50.766H443.756ZM468.79 40.27L472.357 45.682L475.965 40.27H476.785L472.767 46.297L475.555 50.52L482.361 40.27H483.181L475.965 51.135L483.181 62H482.361L475.555 51.75L472.767 55.973L476.785 62H475.965L472.398 56.588L468.79 62H467.97L471.988 55.973L469.159 51.75L462.394 62H461.574L468.749 51.135L461.574 40.27H462.394L469.159 50.52L471.947 46.297L467.97 40.27H468.79ZM472.357 55.358L475.145 51.135L472.357 46.912L469.569 51.135L472.357 55.358ZM499.835 42.115V60.155C502.582 58.474 504.755 55.071 504.755 51.135C504.755 47.199 502.582 43.796 499.835 42.115ZM494.054 39.778C495.899 39.778 497.621 40.229 499.179 41.008V40.27H499.835V41.377C502.131 42.648 503.894 44.944 504.755 47.322V40.27H505.411V62H504.755V54.907C503.935 57.244 502.131 59.663 499.835 60.934V62H499.179V61.262C497.621 62.041 495.899 62.492 494.054 62.492C487.781 62.492 482.697 57.408 482.697 51.135C482.697 44.862 487.781 39.778 494.054 39.778ZM494.054 61.836C495.899 61.836 497.662 61.385 499.179 60.565V53.841C498.195 55.645 496.268 56.916 494.054 56.916C490.856 56.916 488.273 54.333 488.273 51.135C488.273 47.937 490.856 45.354 494.054 45.354C496.268 45.354 498.195 46.625 499.179 48.47V41.746C497.662 40.926 495.899 40.434 494.054 40.434C488.15 40.434 483.353 45.231 483.353 51.135C483.353 57.039 488.15 61.836 494.054 61.836ZM494.054 56.26C496.924 56.26 499.179 53.964 499.179 51.135C499.179 48.306 496.924 46.01 494.054 46.01C491.225 46.01 488.929 48.306 488.929 51.135C488.929 53.964 491.225 56.26 494.054 56.26ZM509.592 62V40.27H510.248V45.969C511.15 43.714 512.954 41.869 515.168 40.885V40.27H515.824V40.639C516.767 40.311 517.833 40.106 518.899 40.106C521.277 40.106 523.45 41.008 525.09 42.484C526.73 41.008 528.903 40.106 531.281 40.106C536.406 40.106 540.588 44.288 540.588 49.413V62H539.932V49.413C539.932 44.657 536.037 40.762 531.281 40.762C529.108 40.762 527.099 41.582 525.582 42.935C526.812 44.206 527.673 45.805 528.042 47.609C528.657 46.461 529.887 45.682 531.281 45.682C533.331 45.682 535.012 47.363 535.012 49.413V62H534.356V49.413C534.356 47.732 532.962 46.338 531.281 46.338C529.6 46.338 528.206 47.732 528.206 49.413V62H527.55V49.413C527.55 47.076 526.607 44.944 525.09 43.386C523.573 44.944 522.63 47.076 522.63 49.413V62H521.974V49.413C521.974 47.732 520.58 46.338 518.899 46.338C517.218 46.338 515.824 47.732 515.824 49.413V62H515.168V41.623C512.257 43.017 510.248 46.01 510.248 49.413V62H509.592ZM515.824 41.336V47.322C516.48 46.338 517.628 45.682 518.899 45.682C520.293 45.682 521.523 46.461 522.138 47.609C522.507 45.805 523.368 44.206 524.598 42.935C523.081 41.582 521.072 40.762 518.899 40.762C517.833 40.762 516.767 40.967 515.824 41.336ZM550.042 60.155V42.115C547.295 43.796 545.122 47.199 545.122 51.135C545.122 55.071 547.295 58.474 550.042 60.155ZM555.823 62.492C553.978 62.492 552.256 62.041 550.698 61.262V71.02H550.042V60.893C547.746 59.622 545.942 57.285 545.122 54.948V71.02H544.466V40.27H545.122V47.363C545.942 44.985 547.746 42.607 550.042 41.336V40.27H550.698V41.008C552.256 40.229 553.978 39.778 555.823 39.778C562.096 39.778 567.18 44.862 567.18 51.135C567.18 57.408 562.096 62.492 555.823 62.492ZM555.823 56.916C553.609 56.916 551.682 55.645 550.698 53.8V60.524C552.215 61.344 553.978 61.836 555.823 61.836C561.727 61.836 566.524 57.039 566.524 51.135C566.524 45.231 561.727 40.434 555.823 40.434C553.978 40.434 552.215 40.885 550.698 41.705V48.429C551.682 46.625 553.609 45.354 555.823 45.354C559.021 45.354 561.604 47.937 561.604 51.135C561.604 54.333 559.021 56.916 555.823 56.916ZM555.823 46.01C552.953 46.01 550.698 48.306 550.698 51.135C550.698 53.964 552.953 56.26 555.823 56.26C558.652 56.26 560.948 53.964 560.948 51.135C560.948 48.306 558.652 46.01 555.823 46.01ZM570.787 31.25V62H570.131V31.25H570.787ZM576.363 31.25V62H575.707V31.25H576.363ZM579.311 51.135C579.311 44.862 584.395 39.778 590.668 39.778C595.67 39.778 599.893 42.976 601.41 47.486L588.085 55.563C588.864 56.014 589.725 56.26 590.668 56.26C592.718 56.26 594.481 55.03 595.301 53.308L595.916 53.595C595.014 55.563 593.005 56.916 590.668 56.916C589.479 56.916 588.372 56.547 587.47 55.932L583.042 58.638C584.969 60.606 587.675 61.836 590.668 61.836C594.932 61.836 598.663 59.294 600.385 55.645L600.959 55.932C599.155 59.827 595.219 62.492 590.668 62.492C584.395 62.492 579.311 57.408 579.311 51.135ZM579.967 51.135C579.967 52.324 580.172 53.431 580.5 54.497L584.928 51.791C584.887 51.586 584.887 51.34 584.887 51.135C584.887 47.937 587.47 45.354 590.668 45.354C591.857 45.354 593.005 45.723 593.907 46.338L598.294 43.673C596.367 41.664 593.661 40.434 590.668 40.434C584.764 40.434 579.967 45.231 579.967 51.135ZM580.746 55.112C581.197 56.219 581.812 57.244 582.591 58.146L586.896 55.522C585.994 54.743 585.338 53.677 585.051 52.488L580.746 55.112ZM585.543 51.135V51.422L593.292 46.707C592.513 46.256 591.611 46.01 590.668 46.01C587.839 46.01 585.543 48.306 585.543 51.135ZM585.625 52.16C585.871 53.349 586.568 54.415 587.511 55.153L595.711 50.151C595.465 48.962 594.809 47.896 593.866 47.117L585.625 52.16ZM594.481 46.789C595.383 47.568 596.039 48.593 596.285 49.823L600.631 47.158C600.18 46.051 599.524 45.067 598.786 44.165L594.481 46.789ZM625.337 62H624.681L618.777 46.871V62H618.121V39.532H613.201V62H612.545V33.3H621.688C626.936 33.3 631.118 37.482 631.118 42.73C631.118 46.912 629.027 49.372 626.608 50.889L630.913 62H630.257L626.075 51.217C624.886 51.914 623.205 52.529 621.811 52.939L625.337 62ZM624.435 45.313L626.362 50.274C628.576 48.88 630.462 46.584 630.462 42.73C630.462 37.81 626.608 33.956 621.688 33.956H618.777V38.876H621.688C623.82 38.876 625.542 40.598 625.542 42.73C625.542 43.714 625.173 44.575 624.435 45.313ZM618.777 39.532V46.871L620.335 46.543C623.533 45.846 624.886 44.493 624.886 42.73C624.886 40.926 623.492 39.532 621.688 39.532H618.777ZM613.201 33.956V38.876H618.121V33.956H613.201ZM625.829 50.602L623.943 45.764C622.713 46.707 621.278 47.035 619.679 47.363L621.565 52.283C622.795 51.955 624.804 51.217 625.829 50.602ZM632.603 51.135C632.603 44.862 637.687 39.778 643.96 39.778C648.962 39.778 653.185 42.976 654.702 47.486L641.377 55.563C642.156 56.014 643.017 56.26 643.96 56.26C646.01 56.26 647.773 55.03 648.593 53.308L649.208 53.595C648.306 55.563 646.297 56.916 643.96 56.916C642.771 56.916 641.664 56.547 640.762 55.932L636.334 58.638C638.261 60.606 640.967 61.836 643.96 61.836C648.224 61.836 651.955 59.294 653.677 55.645L654.251 55.932C652.447 59.827 648.511 62.492 643.96 62.492C637.687 62.492 632.603 57.408 632.603 51.135ZM633.259 51.135C633.259 52.324 633.464 53.431 633.792 54.497L638.22 51.791C638.179 51.586 638.179 51.34 638.179 51.135C638.179 47.937 640.762 45.354 643.96 45.354C645.149 45.354 646.297 45.723 647.199 46.338L651.586 43.673C649.659 41.664 646.953 40.434 643.96 40.434C638.056 40.434 633.259 45.231 633.259 51.135ZM634.038 55.112C634.489 56.219 635.104 57.244 635.883 58.146L640.188 55.522C639.286 54.743 638.63 53.677 638.343 52.488L634.038 55.112ZM638.835 51.135V51.422L646.584 46.707C645.805 46.256 644.903 46.01 643.96 46.01C641.131 46.01 638.835 48.306 638.835 51.135ZM638.917 52.16C639.163 53.349 639.86 54.415 640.803 55.153L649.003 50.151C648.757 48.962 648.101 47.896 647.158 47.117L638.917 52.16ZM647.773 46.789C648.675 47.568 649.331 48.593 649.577 49.823L653.923 47.158C653.472 46.051 652.816 45.067 652.078 44.165L647.773 46.789ZM672.603 42.115V60.155C675.35 58.474 677.523 55.071 677.523 51.135C677.523 47.199 675.35 43.796 672.603 42.115ZM666.822 39.778C668.667 39.778 670.389 40.229 671.947 41.008V40.27H672.603V41.377C674.899 42.648 676.662 44.944 677.523 47.322V40.27H678.179V62H677.523V54.907C676.703 57.244 674.899 59.663 672.603 60.934V62H671.947V61.262C670.389 62.041 668.667 62.492 666.822 62.492C660.549 62.492 655.465 57.408 655.465 51.135C655.465 44.862 660.549 39.778 666.822 39.778ZM666.822 61.836C668.667 61.836 670.43 61.385 671.947 60.565V53.841C670.963 55.645 669.036 56.916 666.822 56.916C663.624 56.916 661.041 54.333 661.041 51.135C661.041 47.937 663.624 45.354 666.822 45.354C669.036 45.354 670.963 46.625 671.947 48.47V41.746C670.43 40.926 668.667 40.434 666.822 40.434C660.918 40.434 656.121 45.231 656.121 51.135C656.121 57.039 660.918 61.836 666.822 61.836ZM666.822 56.26C669.692 56.26 671.947 53.964 671.947 51.135C671.947 48.306 669.692 46.01 666.822 46.01C663.993 46.01 661.697 48.306 661.697 51.135C661.697 53.964 663.993 56.26 666.822 56.26ZM693.226 45.846V46.502H692.037C689.536 46.502 687.404 48.634 687.404 51.135C687.404 53.636 689.536 55.768 692.037 55.768H693.226V56.424H692.037C689.167 56.424 686.748 54.005 686.748 51.135C686.748 48.265 689.167 45.846 692.037 45.846H693.226ZM693.226 40.926H692.037C686.42 40.926 681.828 45.518 681.828 51.135C681.828 56.752 686.42 61.344 692.037 61.344H693.226V62H692.037C686.051 62 681.172 57.121 681.172 51.135C681.172 45.149 686.051 40.27 692.037 40.27H693.226V40.926ZM698.745 40.926H695.506V40.27H698.745V33.3H699.401V40.27H704.321V33.3H704.977V40.27H708.216V40.926H704.977V45.846H708.216V46.502H704.977V62H704.321V46.502H699.401V62H698.745V46.502H695.506V45.846H698.745V40.926ZM704.321 40.926H699.401V45.846H704.321V40.926ZM735.049 56.424H733.04C727.997 56.424 724.307 52.447 724.307 47.65C724.307 42.812 727.997 38.876 733.04 38.876H735.049V39.532H733.04C728.407 39.532 724.963 43.14 724.963 47.65C724.963 52.119 728.407 55.768 733.04 55.768H735.049V56.424ZM735.049 62H733.04C725.086 62 718.731 55.563 718.731 47.65C718.731 39.737 725.086 33.3 733.04 33.3H735.049V33.956H733.04C725.414 33.956 719.387 40.065 719.387 47.65C719.387 55.235 725.414 61.344 733.04 61.344H735.049V62ZM747.822 62.492C741.549 62.492 736.465 57.408 736.465 51.135C736.465 44.862 741.549 39.778 747.822 39.778C754.095 39.778 759.179 44.862 759.179 51.135C759.179 57.408 754.095 62.492 747.822 62.492ZM747.822 61.836C753.726 61.836 758.523 57.039 758.523 51.135C758.523 45.231 753.726 40.434 747.822 40.434C741.918 40.434 737.121 45.231 737.121 51.135C737.121 57.039 741.918 61.836 747.822 61.836ZM747.822 56.916C744.624 56.916 742.041 54.333 742.041 51.135C742.041 47.937 744.624 45.354 747.822 45.354C751.02 45.354 753.603 47.937 753.603 51.135C753.603 54.333 751.02 56.916 747.822 56.916ZM747.822 56.26C750.651 56.26 752.947 53.964 752.947 51.135C752.947 48.306 750.651 46.01 747.822 46.01C744.993 46.01 742.697 48.306 742.697 51.135C742.697 53.964 744.993 56.26 747.822 56.26ZM760.888 51.135C760.888 44.862 765.972 39.778 772.245 39.778C774.09 39.778 775.812 40.229 777.37 41.008V31.25H778.026V41.377C780.322 42.648 782.085 44.944 782.946 47.322V31.25H783.602V62H782.946V54.907C782.126 57.244 780.322 59.663 778.026 60.934V62H777.37V61.262C775.812 62.041 774.09 62.492 772.245 62.492C765.972 62.492 760.888 57.408 760.888 51.135ZM761.544 51.135C761.544 57.039 766.341 61.836 772.245 61.836C774.09 61.836 775.853 61.385 777.37 60.565V53.841C776.386 55.645 774.459 56.916 772.245 56.916C769.047 56.916 766.464 54.333 766.464 51.135C766.464 47.937 769.047 45.354 772.245 45.354C774.459 45.354 776.386 46.625 777.37 48.47V41.746C775.853 40.926 774.09 40.434 772.245 40.434C766.341 40.434 761.544 45.231 761.544 51.135ZM767.12 51.135C767.12 53.964 769.416 56.26 772.245 56.26C775.115 56.26 777.37 53.964 777.37 51.135C777.37 48.306 775.115 46.01 772.245 46.01C769.416 46.01 767.12 48.306 767.12 51.135ZM778.026 42.115V60.155C780.773 58.474 782.946 55.071 782.946 51.135C782.946 47.199 780.773 43.796 778.026 42.115ZM786.553 51.135C786.553 44.862 791.637 39.778 797.91 39.778C802.912 39.778 807.135 42.976 808.652 47.486L795.327 55.563C796.106 56.014 796.967 56.26 797.91 56.26C799.96 56.26 801.723 55.03 802.543 53.308L803.158 53.595C802.256 55.563 800.247 56.916 797.91 56.916C796.721 56.916 795.614 56.547 794.712 55.932L790.284 58.638C792.211 60.606 794.917 61.836 797.91 61.836C802.174 61.836 805.905 59.294 807.627 55.645L808.201 55.932C806.397 59.827 802.461 62.492 797.91 62.492C791.637 62.492 786.553 57.408 786.553 51.135ZM787.209 51.135C787.209 52.324 787.414 53.431 787.742 54.497L792.17 51.791C792.129 51.586 792.129 51.34 792.129 51.135C792.129 47.937 794.712 45.354 797.91 45.354C799.099 45.354 800.247 45.723 801.149 46.338L805.536 43.673C803.609 41.664 800.903 40.434 797.91 40.434C792.006 40.434 787.209 45.231 787.209 51.135ZM787.988 55.112C788.439 56.219 789.054 57.244 789.833 58.146L794.138 55.522C793.236 54.743 792.58 53.677 792.293 52.488L787.988 55.112ZM792.785 51.135V51.422L800.534 46.707C799.755 46.256 798.853 46.01 797.91 46.01C795.081 46.01 792.785 48.306 792.785 51.135ZM792.867 52.16C793.113 53.349 793.81 54.415 794.753 55.153L802.953 50.151C802.707 48.962 802.051 47.896 801.108 47.117L792.867 52.16ZM801.723 46.789C802.625 47.568 803.281 48.593 803.527 49.823L807.873 47.158C807.422 46.051 806.766 45.067 806.028 44.165L801.723 46.789ZM826.019 61.344H836.884V62H819.787V33.3H836.884V33.956H826.019V38.876H836.884V39.532H826.019V44.534H833.932V45.19H826.019V50.11H833.932V50.766H826.019V55.768H836.884V56.424H826.019V61.344ZM820.443 39.532V44.534H825.363V39.532H820.443ZM825.363 56.424H820.443V61.344H825.363V56.424ZM825.363 33.956H820.443V38.876H825.363V33.956ZM825.363 45.19H820.443V50.11H825.363V45.19ZM820.443 50.766V55.768H825.363V50.766H820.443ZM845.478 40.27L849.045 45.682L852.653 40.27H853.473L849.455 46.297L852.243 50.52L859.049 40.27H859.869L852.653 51.135L859.869 62H859.049L852.243 51.75L849.455 55.973L853.473 62H852.653L849.086 56.588L845.478 62H844.658L848.676 55.973L845.847 51.75L839.082 62H838.262L845.437 51.135L838.262 40.27H839.082L845.847 50.52L848.635 46.297L844.658 40.27H845.478ZM849.045 55.358L851.833 51.135L849.045 46.912L846.257 51.135L849.045 55.358ZM876.522 42.115V60.155C879.269 58.474 881.442 55.071 881.442 51.135C881.442 47.199 879.269 43.796 876.522 42.115ZM870.741 39.778C872.586 39.778 874.308 40.229 875.866 41.008V40.27H876.522V41.377C878.818 42.648 880.581 44.944 881.442 47.322V40.27H882.098V62H881.442V54.907C880.622 57.244 878.818 59.663 876.522 60.934V62H875.866V61.262C874.308 62.041 872.586 62.492 870.741 62.492C864.468 62.492 859.384 57.408 859.384 51.135C859.384 44.862 864.468 39.778 870.741 39.778ZM870.741 61.836C872.586 61.836 874.349 61.385 875.866 60.565V53.841C874.882 55.645 872.955 56.916 870.741 56.916C867.543 56.916 864.96 54.333 864.96 51.135C864.96 47.937 867.543 45.354 870.741 45.354C872.955 45.354 874.882 46.625 875.866 48.47V41.746C874.349 40.926 872.586 40.434 870.741 40.434C864.837 40.434 860.04 45.231 860.04 51.135C860.04 57.039 864.837 61.836 870.741 61.836ZM870.741 56.26C873.611 56.26 875.866 53.964 875.866 51.135C875.866 48.306 873.611 46.01 870.741 46.01C867.912 46.01 865.616 48.306 865.616 51.135C865.616 53.964 867.912 56.26 870.741 56.26ZM886.279 62V40.27H886.935V45.969C887.837 43.714 889.641 41.869 891.855 40.885V40.27H892.511V40.639C893.454 40.311 894.52 40.106 895.586 40.106C897.964 40.106 900.137 41.008 901.777 42.484C903.417 41.008 905.59 40.106 907.968 40.106C913.093 40.106 917.275 44.288 917.275 49.413V62H916.619V49.413C916.619 44.657 912.724 40.762 907.968 40.762C905.795 40.762 903.786 41.582 902.269 42.935C903.499 44.206 904.36 45.805 904.729 47.609C905.344 46.461 906.574 45.682 907.968 45.682C910.018 45.682 911.699 47.363 911.699 49.413V62H911.043V49.413C911.043 47.732 909.649 46.338 907.968 46.338C906.287 46.338 904.893 47.732 904.893 49.413V62H904.237V49.413C904.237 47.076 903.294 44.944 901.777 43.386C900.26 44.944 899.317 47.076 899.317 49.413V62H898.661V49.413C898.661 47.732 897.267 46.338 895.586 46.338C893.905 46.338 892.511 47.732 892.511 49.413V62H891.855V41.623C888.944 43.017 886.935 46.01 886.935 49.413V62H886.279ZM892.511 41.336V47.322C893.167 46.338 894.315 45.682 895.586 45.682C896.98 45.682 898.21 46.461 898.825 47.609C899.194 45.805 900.055 44.206 901.285 42.935C899.768 41.582 897.759 40.762 895.586 40.762C894.52 40.762 893.454 40.967 892.511 41.336ZM926.73 60.155V42.115C923.983 43.796 921.81 47.199 921.81 51.135C921.81 55.071 923.983 58.474 926.73 60.155ZM932.511 62.492C930.666 62.492 928.944 62.041 927.386 61.262V71.02H926.73V60.893C924.434 59.622 922.63 57.285 921.81 54.948V71.02H921.154V40.27H921.81V47.363C922.63 44.985 924.434 42.607 926.73 41.336V40.27H927.386V41.008C928.944 40.229 930.666 39.778 932.511 39.778C938.784 39.778 943.868 44.862 943.868 51.135C943.868 57.408 938.784 62.492 932.511 62.492ZM932.511 56.916C930.297 56.916 928.37 55.645 927.386 53.8V60.524C928.903 61.344 930.666 61.836 932.511 61.836C938.415 61.836 943.212 57.039 943.212 51.135C943.212 45.231 938.415 40.434 932.511 40.434C930.666 40.434 928.903 40.885 927.386 41.705V48.429C928.37 46.625 930.297 45.354 932.511 45.354C935.709 45.354 938.292 47.937 938.292 51.135C938.292 54.333 935.709 56.916 932.511 56.916ZM932.511 46.01C929.641 46.01 927.386 48.306 927.386 51.135C927.386 53.964 929.641 56.26 932.511 56.26C935.34 56.26 937.636 53.964 937.636 51.135C937.636 48.306 935.34 46.01 932.511 46.01ZM947.475 31.25V62H946.819V31.25H947.475ZM953.051 31.25V62H952.395V31.25H953.051ZM955.999 51.135C955.999 44.862 961.083 39.778 967.356 39.778C972.358 39.778 976.581 42.976 978.098 47.486L964.773 55.563C965.552 56.014 966.413 56.26 967.356 56.26C969.406 56.26 971.169 55.03 971.989 53.308L972.604 53.595C971.702 55.563 969.693 56.916 967.356 56.916C966.167 56.916 965.06 56.547 964.158 55.932L959.73 58.638C961.657 60.606 964.363 61.836 967.356 61.836C971.62 61.836 975.351 59.294 977.073 55.645L977.647 55.932C975.843 59.827 971.907 62.492 967.356 62.492C961.083 62.492 955.999 57.408 955.999 51.135ZM956.655 51.135C956.655 52.324 956.86 53.431 957.188 54.497L961.616 51.791C961.575 51.586 961.575 51.34 961.575 51.135C961.575 47.937 964.158 45.354 967.356 45.354C968.545 45.354 969.693 45.723 970.595 46.338L974.982 43.673C973.055 41.664 970.349 40.434 967.356 40.434C961.452 40.434 956.655 45.231 956.655 51.135ZM957.434 55.112C957.885 56.219 958.5 57.244 959.279 58.146L963.584 55.522C962.682 54.743 962.026 53.677 961.739 52.488L957.434 55.112ZM962.231 51.135V51.422L969.98 46.707C969.201 46.256 968.299 46.01 967.356 46.01C964.527 46.01 962.231 48.306 962.231 51.135ZM962.313 52.16C962.559 53.349 963.256 54.415 964.199 55.153L972.399 50.151C972.153 48.962 971.497 47.896 970.554 47.117L962.313 52.16ZM971.169 46.789C972.071 47.568 972.727 48.593 972.973 49.823L977.319 47.158C976.868 46.051 976.212 45.067 975.474 44.165L971.169 46.789ZM1002.02 62H1001.37L995.464 46.871V62H994.808V39.532H989.888V62H989.232V33.3H998.375C1003.62 33.3 1007.81 37.482 1007.81 42.73C1007.81 46.912 1005.71 49.372 1003.3 50.889L1007.6 62H1006.94L1002.76 51.217C1001.57 51.914 999.892 52.529 998.498 52.939L1002.02 62ZM1001.12 45.313L1003.05 50.274C1005.26 48.88 1007.15 46.584 1007.15 42.73C1007.15 37.81 1003.3 33.956 998.375 33.956H995.464V38.876H998.375C1000.51 38.876 1002.23 40.598 1002.23 42.73C1002.23 43.714 1001.86 44.575 1001.12 45.313ZM995.464 39.532V46.871L997.022 46.543C1000.22 45.846 1001.57 44.493 1001.57 42.73C1001.57 40.926 1000.18 39.532 998.375 39.532H995.464ZM989.888 33.956V38.876H994.808V33.956H989.888ZM1002.52 50.602L1000.63 45.764C999.4 46.707 997.965 47.035 996.366 47.363L998.252 52.283C999.482 51.955 1001.49 51.217 1002.52 50.602ZM1009.29 51.135C1009.29 44.862 1014.37 39.778 1020.65 39.778C1025.65 39.778 1029.87 42.976 1031.39 47.486L1018.06 55.563C1018.84 56.014 1019.7 56.26 1020.65 56.26C1022.7 56.26 1024.46 55.03 1025.28 53.308L1025.9 53.595C1024.99 55.563 1022.98 56.916 1020.65 56.916C1019.46 56.916 1018.35 56.547 1017.45 55.932L1013.02 58.638C1014.95 60.606 1017.65 61.836 1020.65 61.836C1024.91 61.836 1028.64 59.294 1030.36 55.645L1030.94 55.932C1029.13 59.827 1025.2 62.492 1020.65 62.492C1014.37 62.492 1009.29 57.408 1009.29 51.135ZM1009.95 51.135C1009.95 52.324 1010.15 53.431 1010.48 54.497L1014.91 51.791C1014.87 51.586 1014.87 51.34 1014.87 51.135C1014.87 47.937 1017.45 45.354 1020.65 45.354C1021.84 45.354 1022.98 45.723 1023.89 46.338L1028.27 43.673C1026.35 41.664 1023.64 40.434 1020.65 40.434C1014.74 40.434 1009.95 45.231 1009.95 51.135ZM1010.73 55.112C1011.18 56.219 1011.79 57.244 1012.57 58.146L1016.88 55.522C1015.97 54.743 1015.32 53.677 1015.03 52.488L1010.73 55.112ZM1015.52 51.135V51.422L1023.27 46.707C1022.49 46.256 1021.59 46.01 1020.65 46.01C1017.82 46.01 1015.52 48.306 1015.52 51.135ZM1015.6 52.16C1015.85 53.349 1016.55 54.415 1017.49 55.153L1025.69 50.151C1025.44 48.962 1024.79 47.896 1023.85 47.117L1015.6 52.16ZM1024.46 46.789C1025.36 47.568 1026.02 48.593 1026.26 49.823L1030.61 47.158C1030.16 46.051 1029.5 45.067 1028.77 44.165L1024.46 46.789ZM1049.29 42.115V60.155C1052.04 58.474 1054.21 55.071 1054.21 51.135C1054.21 47.199 1052.04 43.796 1049.29 42.115ZM1043.51 39.778C1045.35 39.778 1047.08 40.229 1048.63 41.008V40.27H1049.29V41.377C1051.59 42.648 1053.35 44.944 1054.21 47.322V40.27H1054.87V62H1054.21V54.907C1053.39 57.244 1051.59 59.663 1049.29 60.934V62H1048.63V61.262C1047.08 62.041 1045.35 62.492 1043.51 62.492C1037.24 62.492 1032.15 57.408 1032.15 51.135C1032.15 44.862 1037.24 39.778 1043.51 39.778ZM1043.51 61.836C1045.35 61.836 1047.12 61.385 1048.63 60.565V53.841C1047.65 55.645 1045.72 56.916 1043.51 56.916C1040.31 56.916 1037.73 54.333 1037.73 51.135C1037.73 47.937 1040.31 45.354 1043.51 45.354C1045.72 45.354 1047.65 46.625 1048.63 48.47V41.746C1047.12 40.926 1045.35 40.434 1043.51 40.434C1037.61 40.434 1032.81 45.231 1032.81 51.135C1032.81 57.039 1037.61 61.836 1043.51 61.836ZM1043.51 56.26C1046.38 56.26 1048.63 53.964 1048.63 51.135C1048.63 48.306 1046.38 46.01 1043.51 46.01C1040.68 46.01 1038.38 48.306 1038.38 51.135C1038.38 53.964 1040.68 56.26 1043.51 56.26ZM1069.91 45.846V46.502H1068.72C1066.22 46.502 1064.09 48.634 1064.09 51.135C1064.09 53.636 1066.22 55.768 1068.72 55.768H1069.91V56.424H1068.72C1065.85 56.424 1063.44 54.005 1063.44 51.135C1063.44 48.265 1065.85 45.846 1068.72 45.846H1069.91ZM1069.91 40.926H1068.72C1063.11 40.926 1058.52 45.518 1058.52 51.135C1058.52 56.752 1063.11 61.344 1068.72 61.344H1069.91V62H1068.72C1062.74 62 1057.86 57.121 1057.86 51.135C1057.86 45.149 1062.74 40.27 1068.72 40.27H1069.91V40.926ZM1075.43 40.926H1072.19V40.27H1075.43V33.3H1076.09V40.27H1081.01V33.3H1081.66V40.27H1084.9V40.926H1081.66V45.846H1084.9V46.502H1081.66V62H1081.01V46.502H1076.09V62H1075.43V46.502H1072.19V45.846H1075.43V40.926ZM1081.01 40.926H1076.09V45.846H1081.01V40.926ZM1111.74 56.424H1109.73C1104.68 56.424 1100.99 52.447 1100.99 47.65C1100.99 42.812 1104.68 38.876 1109.73 38.876H1111.74V39.532H1109.73C1105.09 39.532 1101.65 43.14 1101.65 47.65C1101.65 52.119 1105.09 55.768 1109.73 55.768H1111.74V56.424ZM1111.74 62H1109.73C1101.77 62 1095.42 55.563 1095.42 47.65C1095.42 39.737 1101.77 33.3 1109.73 33.3H1111.74V33.956H1109.73C1102.1 33.956 1096.07 40.065 1096.07 47.65C1096.07 55.235 1102.1 61.344 1109.73 61.344H1111.74V62ZM1124.51 62.492C1118.24 62.492 1113.15 57.408 1113.15 51.135C1113.15 44.862 1118.24 39.778 1124.51 39.778C1130.78 39.778 1135.87 44.862 1135.87 51.135C1135.87 57.408 1130.78 62.492 1124.51 62.492ZM1124.51 61.836C1130.41 61.836 1135.21 57.039 1135.21 51.135C1135.21 45.231 1130.41 40.434 1124.51 40.434C1118.61 40.434 1113.81 45.231 1113.81 51.135C1113.81 57.039 1118.61 61.836 1124.51 61.836ZM1124.51 56.916C1121.31 56.916 1118.73 54.333 1118.73 51.135C1118.73 47.937 1121.31 45.354 1124.51 45.354C1127.71 45.354 1130.29 47.937 1130.29 51.135C1130.29 54.333 1127.71 56.916 1124.51 56.916ZM1124.51 56.26C1127.34 56.26 1129.63 53.964 1129.63 51.135C1129.63 48.306 1127.34 46.01 1124.51 46.01C1121.68 46.01 1119.38 48.306 1119.38 51.135C1119.38 53.964 1121.68 56.26 1124.51 56.26ZM1137.58 51.135C1137.58 44.862 1142.66 39.778 1148.93 39.778C1150.78 39.778 1152.5 40.229 1154.06 41.008V31.25H1154.71V41.377C1157.01 42.648 1158.77 44.944 1159.63 47.322V31.25H1160.29V62H1159.63V54.907C1158.81 57.244 1157.01 59.663 1154.71 60.934V62H1154.06V61.262C1152.5 62.041 1150.78 62.492 1148.93 62.492C1142.66 62.492 1137.58 57.408 1137.58 51.135ZM1138.23 51.135C1138.23 57.039 1143.03 61.836 1148.93 61.836C1150.78 61.836 1152.54 61.385 1154.06 60.565V53.841C1153.07 55.645 1151.15 56.916 1148.93 56.916C1145.73 56.916 1143.15 54.333 1143.15 51.135C1143.15 47.937 1145.73 45.354 1148.93 45.354C1151.15 45.354 1153.07 46.625 1154.06 48.47V41.746C1152.54 40.926 1150.78 40.434 1148.93 40.434C1143.03 40.434 1138.23 45.231 1138.23 51.135ZM1143.81 51.135C1143.81 53.964 1146.1 56.26 1148.93 56.26C1151.8 56.26 1154.06 53.964 1154.06 51.135C1154.06 48.306 1151.8 46.01 1148.93 46.01C1146.1 46.01 1143.81 48.306 1143.81 51.135ZM1154.71 42.115V60.155C1157.46 58.474 1159.63 55.071 1159.63 51.135C1159.63 47.199 1157.46 43.796 1154.71 42.115ZM1163.24 51.135C1163.24 44.862 1168.32 39.778 1174.6 39.778C1179.6 39.778 1183.82 42.976 1185.34 47.486L1172.01 55.563C1172.79 56.014 1173.65 56.26 1174.6 56.26C1176.65 56.26 1178.41 55.03 1179.23 53.308L1179.85 53.595C1178.94 55.563 1176.93 56.916 1174.6 56.916C1173.41 56.916 1172.3 56.547 1171.4 55.932L1166.97 58.638C1168.9 60.606 1171.6 61.836 1174.6 61.836C1178.86 61.836 1182.59 59.294 1184.31 55.645L1184.89 55.932C1183.08 59.827 1179.15 62.492 1174.6 62.492C1168.32 62.492 1163.24 57.408 1163.24 51.135ZM1163.9 51.135C1163.9 52.324 1164.1 53.431 1164.43 54.497L1168.86 51.791C1168.82 51.586 1168.82 51.34 1168.82 51.135C1168.82 47.937 1171.4 45.354 1174.6 45.354C1175.79 45.354 1176.93 45.723 1177.84 46.338L1182.22 43.673C1180.3 41.664 1177.59 40.434 1174.6 40.434C1168.69 40.434 1163.9 45.231 1163.9 51.135ZM1164.68 55.112C1165.13 56.219 1165.74 57.244 1166.52 58.146L1170.83 55.522C1169.92 54.743 1169.27 53.677 1168.98 52.488L1164.68 55.112ZM1169.47 51.135V51.422L1177.22 46.707C1176.44 46.256 1175.54 46.01 1174.6 46.01C1171.77 46.01 1169.47 48.306 1169.47 51.135ZM1169.55 52.16C1169.8 53.349 1170.5 54.415 1171.44 55.153L1179.64 50.151C1179.39 48.962 1178.74 47.896 1177.8 47.117L1169.55 52.16ZM1178.41 46.789C1179.31 47.568 1179.97 48.593 1180.21 49.823L1184.56 47.158C1184.11 46.051 1183.45 45.067 1182.72 44.165L1178.41 46.789ZM1202.71 61.344H1213.57V62H1196.47V33.3H1213.57V33.956H1202.71V38.876H1213.57V39.532H1202.71V44.534H1210.62V45.19H1202.71V50.11H1210.62V50.766H1202.71V55.768H1213.57V56.424H1202.71V61.344ZM1197.13 39.532V44.534H1202.05V39.532H1197.13ZM1202.05 56.424H1197.13V61.344H1202.05V56.424ZM1202.05 33.956H1197.13V38.876H1202.05V33.956ZM1202.05 45.19H1197.13V50.11H1202.05V45.19ZM1197.13 50.766V55.768H1202.05V50.766H1197.13ZM1222.17 40.27L1225.73 45.682L1229.34 40.27H1230.16L1226.14 46.297L1228.93 50.52L1235.74 40.27H1236.56L1229.34 51.135L1236.56 62H1235.74L1228.93 51.75L1226.14 55.973L1230.16 62H1229.34L1225.77 56.588L1222.17 62H1221.35L1225.36 55.973L1222.53 51.75L1215.77 62H1214.95L1222.12 51.135L1214.95 40.27H1215.77L1222.53 50.52L1225.32 46.297L1221.35 40.27H1222.17ZM1225.73 55.358L1228.52 51.135L1225.73 46.912L1222.94 51.135L1225.73 55.358ZM1253.21 42.115V60.155C1255.96 58.474 1258.13 55.071 1258.13 51.135C1258.13 47.199 1255.96 43.796 1253.21 42.115ZM1247.43 39.778C1249.27 39.778 1251 40.229 1252.55 41.008V40.27H1253.21V41.377C1255.51 42.648 1257.27 44.944 1258.13 47.322V40.27H1258.79V62H1258.13V54.907C1257.31 57.244 1255.51 59.663 1253.21 60.934V62H1252.55V61.262C1251 62.041 1249.27 62.492 1247.43 62.492C1241.16 62.492 1236.07 57.408 1236.07 51.135C1236.07 44.862 1241.16 39.778 1247.43 39.778ZM1247.43 61.836C1249.27 61.836 1251.04 61.385 1252.55 60.565V53.841C1251.57 55.645 1249.64 56.916 1247.43 56.916C1244.23 56.916 1241.65 54.333 1241.65 51.135C1241.65 47.937 1244.23 45.354 1247.43 45.354C1249.64 45.354 1251.57 46.625 1252.55 48.47V41.746C1251.04 40.926 1249.27 40.434 1247.43 40.434C1241.52 40.434 1236.73 45.231 1236.73 51.135C1236.73 57.039 1241.52 61.836 1247.43 61.836ZM1247.43 56.26C1250.3 56.26 1252.55 53.964 1252.55 51.135C1252.55 48.306 1250.3 46.01 1247.43 46.01C1244.6 46.01 1242.3 48.306 1242.3 51.135C1242.3 53.964 1244.6 56.26 1247.43 56.26ZM1262.97 62V40.27H1263.62V45.969C1264.52 43.714 1266.33 41.869 1268.54 40.885V40.27H1269.2V40.639C1270.14 40.311 1271.21 40.106 1272.27 40.106C1274.65 40.106 1276.82 41.008 1278.46 42.484C1280.1 41.008 1282.28 40.106 1284.66 40.106C1289.78 40.106 1293.96 44.288 1293.96 49.413V62H1293.31V49.413C1293.31 44.657 1289.41 40.762 1284.66 40.762C1282.48 40.762 1280.47 41.582 1278.96 42.935C1280.19 44.206 1281.05 45.805 1281.42 47.609C1282.03 46.461 1283.26 45.682 1284.66 45.682C1286.71 45.682 1288.39 47.363 1288.39 49.413V62H1287.73V49.413C1287.73 47.732 1286.34 46.338 1284.66 46.338C1282.97 46.338 1281.58 47.732 1281.58 49.413V62H1280.92V49.413C1280.92 47.076 1279.98 44.944 1278.46 43.386C1276.95 44.944 1276 47.076 1276 49.413V62H1275.35V49.413C1275.35 47.732 1273.95 46.338 1272.27 46.338C1270.59 46.338 1269.2 47.732 1269.2 49.413V62H1268.54V41.623C1265.63 43.017 1263.62 46.01 1263.62 49.413V62H1262.97ZM1269.2 41.336V47.322C1269.85 46.338 1271 45.682 1272.27 45.682C1273.67 45.682 1274.9 46.461 1275.51 47.609C1275.88 45.805 1276.74 44.206 1277.97 42.935C1276.46 41.582 1274.45 40.762 1272.27 40.762C1271.21 40.762 1270.14 40.967 1269.2 41.336ZM1303.42 60.155V42.115C1300.67 43.796 1298.5 47.199 1298.5 51.135C1298.5 55.071 1300.67 58.474 1303.42 60.155ZM1309.2 62.492C1307.35 62.492 1305.63 62.041 1304.07 61.262V71.02H1303.42V60.893C1301.12 59.622 1299.32 57.285 1298.5 54.948V71.02H1297.84V40.27H1298.5V47.363C1299.32 44.985 1301.12 42.607 1303.42 41.336V40.27H1304.07V41.008C1305.63 40.229 1307.35 39.778 1309.2 39.778C1315.47 39.778 1320.56 44.862 1320.56 51.135C1320.56 57.408 1315.47 62.492 1309.2 62.492ZM1309.2 56.916C1306.98 56.916 1305.06 55.645 1304.07 53.8V60.524C1305.59 61.344 1307.35 61.836 1309.2 61.836C1315.1 61.836 1319.9 57.039 1319.9 51.135C1319.9 45.231 1315.1 40.434 1309.2 40.434C1307.35 40.434 1305.59 40.885 1304.07 41.705V48.429C1305.06 46.625 1306.98 45.354 1309.2 45.354C1312.4 45.354 1314.98 47.937 1314.98 51.135C1314.98 54.333 1312.4 56.916 1309.2 56.916ZM1309.2 46.01C1306.33 46.01 1304.07 48.306 1304.07 51.135C1304.07 53.964 1306.33 56.26 1309.2 56.26C1312.03 56.26 1314.32 53.964 1314.32 51.135C1314.32 48.306 1312.03 46.01 1309.2 46.01ZM1324.16 31.25V62H1323.51V31.25H1324.16ZM1329.74 31.25V62H1329.08V31.25H1329.74ZM1332.69 51.135C1332.69 44.862 1337.77 39.778 1344.04 39.778C1349.05 39.778 1353.27 42.976 1354.79 47.486L1341.46 55.563C1342.24 56.014 1343.1 56.26 1344.04 56.26C1346.09 56.26 1347.86 55.03 1348.68 53.308L1349.29 53.595C1348.39 55.563 1346.38 56.916 1344.04 56.916C1342.85 56.916 1341.75 56.547 1340.85 55.932L1336.42 58.638C1338.34 60.606 1341.05 61.836 1344.04 61.836C1348.31 61.836 1352.04 59.294 1353.76 55.645L1354.33 55.932C1352.53 59.827 1348.59 62.492 1344.04 62.492C1337.77 62.492 1332.69 57.408 1332.69 51.135ZM1333.34 51.135C1333.34 52.324 1333.55 53.431 1333.88 54.497L1338.3 51.791C1338.26 51.586 1338.26 51.34 1338.26 51.135C1338.26 47.937 1340.85 45.354 1344.04 45.354C1345.23 45.354 1346.38 45.723 1347.28 46.338L1351.67 43.673C1349.74 41.664 1347.04 40.434 1344.04 40.434C1338.14 40.434 1333.34 45.231 1333.34 51.135ZM1334.12 55.112C1334.57 56.219 1335.19 57.244 1335.97 58.146L1340.27 55.522C1339.37 54.743 1338.71 53.677 1338.43 52.488L1334.12 55.112ZM1338.92 51.135V51.422L1346.67 46.707C1345.89 46.256 1344.99 46.01 1344.04 46.01C1341.21 46.01 1338.92 48.306 1338.92 51.135ZM1339 52.16C1339.25 53.349 1339.94 54.415 1340.89 55.153L1349.09 50.151C1348.84 48.962 1348.18 47.896 1347.24 47.117L1339 52.16ZM1347.86 46.789C1348.76 47.568 1349.41 48.593 1349.66 49.823L1354.01 47.158C1353.56 46.051 1352.9 45.067 1352.16 44.165L1347.86 46.789ZM1378.71 62H1378.06L1372.15 46.871V62H1371.5V39.532H1366.58V62H1365.92V33.3H1375.06C1380.31 33.3 1384.49 37.482 1384.49 42.73C1384.49 46.912 1382.4 49.372 1379.98 50.889L1384.29 62H1383.63L1379.45 51.217C1378.26 51.914 1376.58 52.529 1375.19 52.939L1378.71 62ZM1377.81 45.313L1379.74 50.274C1381.95 48.88 1383.84 46.584 1383.84 42.73C1383.84 37.81 1379.98 33.956 1375.06 33.956H1372.15V38.876H1375.06C1377.19 38.876 1378.92 40.598 1378.92 42.73C1378.92 43.714 1378.55 44.575 1377.81 45.313ZM1372.15 39.532V46.871L1373.71 46.543C1376.91 45.846 1378.26 44.493 1378.26 42.73C1378.26 40.926 1376.87 39.532 1375.06 39.532H1372.15ZM1366.58 33.956V38.876H1371.5V33.956H1366.58ZM1379.2 50.602L1377.32 45.764C1376.09 46.707 1374.65 47.035 1373.05 47.363L1374.94 52.283C1376.17 51.955 1378.18 51.217 1379.2 50.602ZM1385.98 51.135C1385.98 44.862 1391.06 39.778 1397.34 39.778C1402.34 39.778 1406.56 42.976 1408.08 47.486L1394.75 55.563C1395.53 56.014 1396.39 56.26 1397.34 56.26C1399.39 56.26 1401.15 55.03 1401.97 53.308L1402.58 53.595C1401.68 55.563 1399.67 56.916 1397.34 56.916C1396.15 56.916 1395.04 56.547 1394.14 55.932L1389.71 58.638C1391.64 60.606 1394.34 61.836 1397.34 61.836C1401.6 61.836 1405.33 59.294 1407.05 55.645L1407.63 55.932C1405.82 59.827 1401.89 62.492 1397.34 62.492C1391.06 62.492 1385.98 57.408 1385.98 51.135ZM1386.63 51.135C1386.63 52.324 1386.84 53.431 1387.17 54.497L1391.6 51.791C1391.55 51.586 1391.55 51.34 1391.55 51.135C1391.55 47.937 1394.14 45.354 1397.34 45.354C1398.52 45.354 1399.67 45.723 1400.57 46.338L1404.96 43.673C1403.03 41.664 1400.33 40.434 1397.34 40.434C1391.43 40.434 1386.63 45.231 1386.63 51.135ZM1387.41 55.112C1387.86 56.219 1388.48 57.244 1389.26 58.146L1393.56 55.522C1392.66 54.743 1392.01 53.677 1391.72 52.488L1387.41 55.112ZM1392.21 51.135V51.422L1399.96 46.707C1399.18 46.256 1398.28 46.01 1397.34 46.01C1394.51 46.01 1392.21 48.306 1392.21 51.135ZM1392.29 52.16C1392.54 53.349 1393.24 54.415 1394.18 55.153L1402.38 50.151C1402.13 48.962 1401.48 47.896 1400.53 47.117L1392.29 52.16ZM1401.15 46.789C1402.05 47.568 1402.71 48.593 1402.95 49.823L1407.3 47.158C1406.85 46.051 1406.19 45.067 1405.45 44.165L1401.15 46.789ZM1425.98 42.115V60.155C1428.73 58.474 1430.9 55.071 1430.9 51.135C1430.9 47.199 1428.73 43.796 1425.98 42.115ZM1420.2 39.778C1422.04 39.778 1423.76 40.229 1425.32 41.008V40.27H1425.98V41.377C1428.27 42.648 1430.04 44.944 1430.9 47.322V40.27H1431.55V62H1430.9V54.907C1430.08 57.244 1428.27 59.663 1425.98 60.934V62H1425.32V61.262C1423.76 62.041 1422.04 62.492 1420.2 62.492C1413.92 62.492 1408.84 57.408 1408.84 51.135C1408.84 44.862 1413.92 39.778 1420.2 39.778ZM1420.2 61.836C1422.04 61.836 1423.81 61.385 1425.32 60.565V53.841C1424.34 55.645 1422.41 56.916 1420.2 56.916C1417 56.916 1414.42 54.333 1414.42 51.135C1414.42 47.937 1417 45.354 1420.2 45.354C1422.41 45.354 1424.34 46.625 1425.32 48.47V41.746C1423.81 40.926 1422.04 40.434 1420.2 40.434C1414.29 40.434 1409.5 45.231 1409.5 51.135C1409.5 57.039 1414.29 61.836 1420.2 61.836ZM1420.2 56.26C1423.07 56.26 1425.32 53.964 1425.32 51.135C1425.32 48.306 1423.07 46.01 1420.2 46.01C1417.37 46.01 1415.07 48.306 1415.07 51.135C1415.07 53.964 1417.37 56.26 1420.2 56.26ZM1446.6 45.846V46.502H1445.41C1442.91 46.502 1440.78 48.634 1440.78 51.135C1440.78 53.636 1442.91 55.768 1445.41 55.768H1446.6V56.424H1445.41C1442.54 56.424 1440.12 54.005 1440.12 51.135C1440.12 48.265 1442.54 45.846 1445.41 45.846H1446.6ZM1446.6 40.926H1445.41C1439.79 40.926 1435.2 45.518 1435.2 51.135C1435.2 56.752 1439.79 61.344 1445.41 61.344H1446.6V62H1445.41C1439.43 62 1434.55 57.121 1434.55 51.135C1434.55 45.149 1439.43 40.27 1445.41 40.27H1446.6V40.926ZM1452.12 40.926H1448.88V40.27H1452.12V33.3H1452.78V40.27H1457.7V33.3H1458.35V40.27H1461.59V40.926H1458.35V45.846H1461.59V46.502H1458.35V62H1457.7V46.502H1452.78V62H1452.12V46.502H1448.88V45.846H1452.12V40.926ZM1457.7 40.926H1452.78V45.846H1457.7V40.926ZM1488.42 56.424H1486.42C1481.37 56.424 1477.68 52.447 1477.68 47.65C1477.68 42.812 1481.37 38.876 1486.42 38.876H1488.42V39.532H1486.42C1481.78 39.532 1478.34 43.14 1478.34 47.65C1478.34 52.119 1481.78 55.768 1486.42 55.768H1488.42V56.424ZM1488.42 62H1486.42C1478.46 62 1472.11 55.563 1472.11 47.65C1472.11 39.737 1478.46 33.3 1486.42 33.3H1488.42V33.956H1486.42C1478.79 33.956 1472.76 40.065 1472.76 47.65C1472.76 55.235 1478.79 61.344 1486.42 61.344H1488.42V62ZM1501.2 62.492C1494.92 62.492 1489.84 57.408 1489.84 51.135C1489.84 44.862 1494.92 39.778 1501.2 39.778C1507.47 39.778 1512.55 44.862 1512.55 51.135C1512.55 57.408 1507.47 62.492 1501.2 62.492ZM1501.2 61.836C1507.1 61.836 1511.9 57.039 1511.9 51.135C1511.9 45.231 1507.1 40.434 1501.2 40.434C1495.29 40.434 1490.5 45.231 1490.5 51.135C1490.5 57.039 1495.29 61.836 1501.2 61.836ZM1501.2 56.916C1498 56.916 1495.42 54.333 1495.42 51.135C1495.42 47.937 1498 45.354 1501.2 45.354C1504.39 45.354 1506.98 47.937 1506.98 51.135C1506.98 54.333 1504.39 56.916 1501.2 56.916ZM1501.2 56.26C1504.03 56.26 1506.32 53.964 1506.32 51.135C1506.32 48.306 1504.03 46.01 1501.2 46.01C1498.37 46.01 1496.07 48.306 1496.07 51.135C1496.07 53.964 1498.37 56.26 1501.2 56.26ZM1514.26 51.135C1514.26 44.862 1519.35 39.778 1525.62 39.778C1527.47 39.778 1529.19 40.229 1530.75 41.008V31.25H1531.4V41.377C1533.7 42.648 1535.46 44.944 1536.32 47.322V31.25H1536.98V62H1536.32V54.907C1535.5 57.244 1533.7 59.663 1531.4 60.934V62H1530.75V61.262C1529.19 62.041 1527.47 62.492 1525.62 62.492C1519.35 62.492 1514.26 57.408 1514.26 51.135ZM1514.92 51.135C1514.92 57.039 1519.72 61.836 1525.62 61.836C1527.47 61.836 1529.23 61.385 1530.75 60.565V53.841C1529.76 55.645 1527.83 56.916 1525.62 56.916C1522.42 56.916 1519.84 54.333 1519.84 51.135C1519.84 47.937 1522.42 45.354 1525.62 45.354C1527.83 45.354 1529.76 46.625 1530.75 48.47V41.746C1529.23 40.926 1527.47 40.434 1525.62 40.434C1519.72 40.434 1514.92 45.231 1514.92 51.135ZM1520.5 51.135C1520.5 53.964 1522.79 56.26 1525.62 56.26C1528.49 56.26 1530.75 53.964 1530.75 51.135C1530.75 48.306 1528.49 46.01 1525.62 46.01C1522.79 46.01 1520.5 48.306 1520.5 51.135ZM1531.4 42.115V60.155C1534.15 58.474 1536.32 55.071 1536.32 51.135C1536.32 47.199 1534.15 43.796 1531.4 42.115ZM1539.93 51.135C1539.93 44.862 1545.01 39.778 1551.29 39.778C1556.29 39.778 1560.51 42.976 1562.03 47.486L1548.7 55.563C1549.48 56.014 1550.34 56.26 1551.29 56.26C1553.34 56.26 1555.1 55.03 1555.92 53.308L1556.53 53.595C1555.63 55.563 1553.62 56.916 1551.29 56.916C1550.1 56.916 1548.99 56.547 1548.09 55.932L1543.66 58.638C1545.59 60.606 1548.29 61.836 1551.29 61.836C1555.55 61.836 1559.28 59.294 1561 55.645L1561.58 55.932C1559.77 59.827 1555.84 62.492 1551.29 62.492C1545.01 62.492 1539.93 57.408 1539.93 51.135ZM1540.58 51.135C1540.58 52.324 1540.79 53.431 1541.12 54.497L1545.55 51.791C1545.5 51.586 1545.5 51.34 1545.5 51.135C1545.5 47.937 1548.09 45.354 1551.29 45.354C1552.47 45.354 1553.62 45.723 1554.52 46.338L1558.91 43.673C1556.98 41.664 1554.28 40.434 1551.29 40.434C1545.38 40.434 1540.58 45.231 1540.58 51.135ZM1541.36 55.112C1541.81 56.219 1542.43 57.244 1543.21 58.146L1547.51 55.522C1546.61 54.743 1545.96 53.677 1545.67 52.488L1541.36 55.112ZM1546.16 51.135V51.422L1553.91 46.707C1553.13 46.256 1552.23 46.01 1551.29 46.01C1548.46 46.01 1546.16 48.306 1546.16 51.135ZM1546.24 52.16C1546.49 53.349 1547.19 54.415 1548.13 55.153L1556.33 50.151C1556.08 48.962 1555.43 47.896 1554.48 47.117L1546.24 52.16ZM1555.1 46.789C1556 47.568 1556.66 48.593 1556.9 49.823L1561.25 47.158C1560.8 46.051 1560.14 45.067 1559.4 44.165L1555.1 46.789ZM1579.39 61.344H1590.26V62H1573.16V33.3H1590.26V33.956H1579.39V38.876H1590.26V39.532H1579.39V44.534H1587.31V45.19H1579.39V50.11H1587.31V50.766H1579.39V55.768H1590.26V56.424H1579.39V61.344ZM1573.82 39.532V44.534H1578.74V39.532H1573.82ZM1578.74 56.424H1573.82V61.344H1578.74V56.424ZM1578.74 33.956H1573.82V38.876H1578.74V33.956ZM1578.74 45.19H1573.82V50.11H1578.74V45.19ZM1573.82 50.766V55.768H1578.74V50.766H1573.82ZM1598.85 40.27L1602.42 45.682L1606.03 40.27H1606.85L1602.83 46.297L1605.62 50.52L1612.42 40.27H1613.24L1606.03 51.135L1613.24 62H1612.42L1605.62 51.75L1602.83 55.973L1606.85 62H1606.03L1602.46 56.588L1598.85 62H1598.03L1602.05 55.973L1599.22 51.75L1592.46 62H1591.64L1598.81 51.135L1591.64 40.27H1592.46L1599.22 50.52L1602.01 46.297L1598.03 40.27H1598.85ZM1602.42 55.358L1605.21 51.135L1602.42 46.912L1599.63 51.135L1602.42 55.358ZM1629.9 42.115V60.155C1632.64 58.474 1634.82 55.071 1634.82 51.135C1634.82 47.199 1632.64 43.796 1629.9 42.115ZM1624.12 39.778C1625.96 39.778 1627.68 40.229 1629.24 41.008V40.27H1629.9V41.377C1632.19 42.648 1633.96 44.944 1634.82 47.322V40.27H1635.47V62H1634.82V54.907C1634 57.244 1632.19 59.663 1629.9 60.934V62H1629.24V61.262C1627.68 62.041 1625.96 62.492 1624.12 62.492C1617.84 62.492 1612.76 57.408 1612.76 51.135C1612.76 44.862 1617.84 39.778 1624.12 39.778ZM1624.12 61.836C1625.96 61.836 1627.72 61.385 1629.24 60.565V53.841C1628.26 55.645 1626.33 56.916 1624.12 56.916C1620.92 56.916 1618.34 54.333 1618.34 51.135C1618.34 47.937 1620.92 45.354 1624.12 45.354C1626.33 45.354 1628.26 46.625 1629.24 48.47V41.746C1627.72 40.926 1625.96 40.434 1624.12 40.434C1618.21 40.434 1613.42 45.231 1613.42 51.135C1613.42 57.039 1618.21 61.836 1624.12 61.836ZM1624.12 56.26C1626.99 56.26 1629.24 53.964 1629.24 51.135C1629.24 48.306 1626.99 46.01 1624.12 46.01C1621.29 46.01 1618.99 48.306 1618.99 51.135C1618.99 53.964 1621.29 56.26 1624.12 56.26ZM1639.65 62V40.27H1640.31V45.969C1641.21 43.714 1643.02 41.869 1645.23 40.885V40.27H1645.89V40.639C1646.83 40.311 1647.9 40.106 1648.96 40.106C1651.34 40.106 1653.51 41.008 1655.15 42.484C1656.79 41.008 1658.97 40.106 1661.34 40.106C1666.47 40.106 1670.65 44.288 1670.65 49.413V62H1669.99V49.413C1669.99 44.657 1666.1 40.762 1661.34 40.762C1659.17 40.762 1657.16 41.582 1655.64 42.935C1656.87 44.206 1657.74 45.805 1658.1 47.609C1658.72 46.461 1659.95 45.682 1661.34 45.682C1663.39 45.682 1665.07 47.363 1665.07 49.413V62H1664.42V49.413C1664.42 47.732 1663.02 46.338 1661.34 46.338C1659.66 46.338 1658.27 47.732 1658.27 49.413V62H1657.61V49.413C1657.61 47.076 1656.67 44.944 1655.15 43.386C1653.64 44.944 1652.69 47.076 1652.69 49.413V62H1652.04V49.413C1652.04 47.732 1650.64 46.338 1648.96 46.338C1647.28 46.338 1645.89 47.732 1645.89 49.413V62H1645.23V41.623C1642.32 43.017 1640.31 46.01 1640.31 49.413V62H1639.65ZM1645.89 41.336V47.322C1646.54 46.338 1647.69 45.682 1648.96 45.682C1650.36 45.682 1651.59 46.461 1652.2 47.609C1652.57 45.805 1653.43 44.206 1654.66 42.935C1653.14 41.582 1651.13 40.762 1648.96 40.762C1647.9 40.762 1646.83 40.967 1645.89 41.336ZM1680.1 60.155V42.115C1677.36 43.796 1675.18 47.199 1675.18 51.135C1675.18 55.071 1677.36 58.474 1680.1 60.155ZM1685.89 62.492C1684.04 62.492 1682.32 62.041 1680.76 61.262V71.02H1680.1V60.893C1677.81 59.622 1676 57.285 1675.18 54.948V71.02H1674.53V40.27H1675.18V47.363C1676 44.985 1677.81 42.607 1680.1 41.336V40.27H1680.76V41.008C1682.32 40.229 1684.04 39.778 1685.89 39.778C1692.16 39.778 1697.24 44.862 1697.24 51.135C1697.24 57.408 1692.16 62.492 1685.89 62.492ZM1685.89 56.916C1683.67 56.916 1681.74 55.645 1680.76 53.8V60.524C1682.28 61.344 1684.04 61.836 1685.89 61.836C1691.79 61.836 1696.59 57.039 1696.59 51.135C1696.59 45.231 1691.79 40.434 1685.89 40.434C1684.04 40.434 1682.28 40.885 1680.76 41.705V48.429C1681.74 46.625 1683.67 45.354 1685.89 45.354C1689.08 45.354 1691.67 47.937 1691.67 51.135C1691.67 54.333 1689.08 56.916 1685.89 56.916ZM1685.89 46.01C1683.02 46.01 1680.76 48.306 1680.76 51.135C1680.76 53.964 1683.02 56.26 1685.89 56.26C1688.71 56.26 1691.01 53.964 1691.01 51.135C1691.01 48.306 1688.71 46.01 1685.89 46.01ZM1700.85 31.25V62H1700.19V31.25H1700.85ZM1706.43 31.25V62H1705.77V31.25H1706.43ZM1709.37 51.135C1709.37 44.862 1714.46 39.778 1720.73 39.778C1725.73 39.778 1729.96 42.976 1731.47 47.486L1718.15 55.563C1718.93 56.014 1719.79 56.26 1720.73 56.26C1722.78 56.26 1724.54 55.03 1725.36 53.308L1725.98 53.595C1725.08 55.563 1723.07 56.916 1720.73 56.916C1719.54 56.916 1718.43 56.547 1717.53 55.932L1713.1 58.638C1715.03 60.606 1717.74 61.836 1720.73 61.836C1724.99 61.836 1728.73 59.294 1730.45 55.645L1731.02 55.932C1729.22 59.827 1725.28 62.492 1720.73 62.492C1714.46 62.492 1709.37 57.408 1709.37 51.135ZM1710.03 51.135C1710.03 52.324 1710.23 53.431 1710.56 54.497L1714.99 51.791C1714.95 51.586 1714.95 51.34 1714.95 51.135C1714.95 47.937 1717.53 45.354 1720.73 45.354C1721.92 45.354 1723.07 45.723 1723.97 46.338L1728.36 43.673C1726.43 41.664 1723.72 40.434 1720.73 40.434C1714.83 40.434 1710.03 45.231 1710.03 51.135ZM1710.81 55.112C1711.26 56.219 1711.87 57.244 1712.65 58.146L1716.96 55.522C1716.06 54.743 1715.4 53.677 1715.11 52.488L1710.81 55.112ZM1715.61 51.135V51.422L1723.35 46.707C1722.58 46.256 1721.67 46.01 1720.73 46.01C1717.9 46.01 1715.61 48.306 1715.61 51.135ZM1715.69 52.16C1715.93 53.349 1716.63 54.415 1717.57 55.153L1725.77 50.151C1725.53 48.962 1724.87 47.896 1723.93 47.117L1715.69 52.16ZM1724.54 46.789C1725.45 47.568 1726.1 48.593 1726.35 49.823L1730.69 47.158C1730.24 46.051 1729.59 45.067 1728.85 44.165L1724.54 46.789ZM1755.4 62H1754.74L1748.84 46.871V62H1748.18V39.532H1743.26V62H1742.61V33.3H1751.75C1757 33.3 1761.18 37.482 1761.18 42.73C1761.18 46.912 1759.09 49.372 1756.67 50.889L1760.98 62H1760.32L1756.14 51.217C1754.95 51.914 1753.27 52.529 1751.87 52.939L1755.4 62ZM1754.5 45.313L1756.42 50.274C1758.64 48.88 1760.52 46.584 1760.52 42.73C1760.52 37.81 1756.67 33.956 1751.75 33.956H1748.84V38.876H1751.75C1753.88 38.876 1755.6 40.598 1755.6 42.73C1755.6 43.714 1755.24 44.575 1754.5 45.313ZM1748.84 39.532V46.871L1750.4 46.543C1753.6 45.846 1754.95 44.493 1754.95 42.73C1754.95 40.926 1753.55 39.532 1751.75 39.532H1748.84ZM1743.26 33.956V38.876H1748.18V33.956H1743.26ZM1755.89 50.602L1754.01 45.764C1752.78 46.707 1751.34 47.035 1749.74 47.363L1751.63 52.283C1752.86 51.955 1754.87 51.217 1755.89 50.602ZM1762.67 51.135C1762.67 44.862 1767.75 39.778 1774.02 39.778C1779.02 39.778 1783.25 42.976 1784.76 47.486L1771.44 55.563C1772.22 56.014 1773.08 56.26 1774.02 56.26C1776.07 56.26 1777.84 55.03 1778.66 53.308L1779.27 53.595C1778.37 55.563 1776.36 56.916 1774.02 56.916C1772.83 56.916 1771.73 56.547 1770.82 55.932L1766.4 58.638C1768.32 60.606 1771.03 61.836 1774.02 61.836C1778.29 61.836 1782.02 59.294 1783.74 55.645L1784.31 55.932C1782.51 59.827 1778.57 62.492 1774.02 62.492C1767.75 62.492 1762.67 57.408 1762.67 51.135ZM1763.32 51.135C1763.32 52.324 1763.53 53.431 1763.85 54.497L1768.28 51.791C1768.24 51.586 1768.24 51.34 1768.24 51.135C1768.24 47.937 1770.82 45.354 1774.02 45.354C1775.21 45.354 1776.36 45.723 1777.26 46.338L1781.65 43.673C1779.72 41.664 1777.02 40.434 1774.02 40.434C1768.12 40.434 1763.32 45.231 1763.32 51.135ZM1764.1 55.112C1764.55 56.219 1765.17 57.244 1765.95 58.146L1770.25 55.522C1769.35 54.743 1768.69 53.677 1768.41 52.488L1764.1 55.112ZM1768.9 51.135V51.422L1776.65 46.707C1775.87 46.256 1774.97 46.01 1774.02 46.01C1771.19 46.01 1768.9 48.306 1768.9 51.135ZM1768.98 52.16C1769.23 53.349 1769.92 54.415 1770.87 55.153L1779.07 50.151C1778.82 48.962 1778.16 47.896 1777.22 47.117L1768.98 52.16ZM1777.84 46.789C1778.74 47.568 1779.39 48.593 1779.64 49.823L1783.99 47.158C1783.53 46.051 1782.88 45.067 1782.14 44.165L1777.84 46.789ZM1802.67 42.115V60.155C1805.41 58.474 1807.59 55.071 1807.59 51.135C1807.59 47.199 1805.41 43.796 1802.67 42.115ZM1796.88 39.778C1798.73 39.778 1800.45 40.229 1802.01 41.008V40.27H1802.67V41.377C1804.96 42.648 1806.72 44.944 1807.59 47.322V40.27H1808.24V62H1807.59V54.907C1806.77 57.244 1804.96 59.663 1802.67 60.934V62H1802.01V61.262C1800.45 62.041 1798.73 62.492 1796.88 62.492C1790.61 62.492 1785.53 57.408 1785.53 51.135C1785.53 44.862 1790.61 39.778 1796.88 39.778ZM1796.88 61.836C1798.73 61.836 1800.49 61.385 1802.01 60.565V53.841C1801.03 55.645 1799.1 56.916 1796.88 56.916C1793.69 56.916 1791.1 54.333 1791.1 51.135C1791.1 47.937 1793.69 45.354 1796.88 45.354C1799.1 45.354 1801.03 46.625 1802.01 48.47V41.746C1800.49 40.926 1798.73 40.434 1796.88 40.434C1790.98 40.434 1786.18 45.231 1786.18 51.135C1786.18 57.039 1790.98 61.836 1796.88 61.836ZM1796.88 56.26C1799.75 56.26 1802.01 53.964 1802.01 51.135C1802.01 48.306 1799.75 46.01 1796.88 46.01C1794.06 46.01 1791.76 48.306 1791.76 51.135C1791.76 53.964 1794.06 56.26 1796.88 56.26ZM1823.29 45.846V46.502H1822.1C1819.6 46.502 1817.47 48.634 1817.47 51.135C1817.47 53.636 1819.6 55.768 1822.1 55.768H1823.29V56.424H1822.1C1819.23 56.424 1816.81 54.005 1816.81 51.135C1816.81 48.265 1819.23 45.846 1822.1 45.846H1823.29ZM1823.29 40.926H1822.1C1816.48 40.926 1811.89 45.518 1811.89 51.135C1811.89 56.752 1816.48 61.344 1822.1 61.344H1823.29V62H1822.1C1816.11 62 1811.23 57.121 1811.23 51.135C1811.23 45.149 1816.11 40.27 1822.1 40.27H1823.29V40.926ZM1828.81 40.926H1825.57V40.27H1828.81V33.3H1829.46V40.27H1834.38V33.3H1835.04V40.27H1838.28V40.926H1835.04V45.846H1838.28V46.502H1835.04V62H1834.38V46.502H1829.46V62H1828.81V46.502H1825.57V45.846H1828.81V40.926ZM1834.38 40.926H1829.46V45.846H1834.38V40.926ZM1873.72 56.424H1871.71C1866.67 56.424 1862.98 52.447 1862.98 47.65C1862.98 42.812 1866.67 38.876 1871.71 38.876H1873.72V39.532H1871.71C1867.08 39.532 1863.63 43.14 1863.63 47.65C1863.63 52.119 1867.08 55.768 1871.71 55.768H1873.72V56.424ZM1873.72 62H1871.71C1863.76 62 1857.4 55.563 1857.4 47.65C1857.4 39.737 1863.76 33.3 1871.71 33.3H1873.72V33.956H1871.71C1864.08 33.956 1858.06 40.065 1858.06 47.65C1858.06 55.235 1864.08 61.344 1871.71 61.344H1873.72V62ZM1886.49 62.492C1880.22 62.492 1875.14 57.408 1875.14 51.135C1875.14 44.862 1880.22 39.778 1886.49 39.778C1892.77 39.778 1897.85 44.862 1897.85 51.135C1897.85 57.408 1892.77 62.492 1886.49 62.492ZM1886.49 61.836C1892.4 61.836 1897.19 57.039 1897.19 51.135C1897.19 45.231 1892.4 40.434 1886.49 40.434C1880.59 40.434 1875.79 45.231 1875.79 51.135C1875.79 57.039 1880.59 61.836 1886.49 61.836ZM1886.49 56.916C1883.29 56.916 1880.71 54.333 1880.71 51.135C1880.71 47.937 1883.29 45.354 1886.49 45.354C1889.69 45.354 1892.27 47.937 1892.27 51.135C1892.27 54.333 1889.69 56.916 1886.49 56.916ZM1886.49 56.26C1889.32 56.26 1891.62 53.964 1891.62 51.135C1891.62 48.306 1889.32 46.01 1886.49 46.01C1883.66 46.01 1881.37 48.306 1881.37 51.135C1881.37 53.964 1883.66 56.26 1886.49 56.26ZM1899.56 51.135C1899.56 44.862 1904.64 39.778 1910.92 39.778C1912.76 39.778 1914.48 40.229 1916.04 41.008V31.25H1916.7V41.377C1918.99 42.648 1920.76 44.944 1921.62 47.322V31.25H1922.27V62H1921.62V54.907C1920.8 57.244 1918.99 59.663 1916.7 60.934V62H1916.04V61.262C1914.48 62.041 1912.76 62.492 1910.92 62.492C1904.64 62.492 1899.56 57.408 1899.56 51.135ZM1900.22 51.135C1900.22 57.039 1905.01 61.836 1910.92 61.836C1912.76 61.836 1914.52 61.385 1916.04 60.565V53.841C1915.06 55.645 1913.13 56.916 1910.92 56.916C1907.72 56.916 1905.14 54.333 1905.14 51.135C1905.14 47.937 1907.72 45.354 1910.92 45.354C1913.13 45.354 1915.06 46.625 1916.04 48.47V41.746C1914.52 40.926 1912.76 40.434 1910.92 40.434C1905.01 40.434 1900.22 45.231 1900.22 51.135ZM1905.79 51.135C1905.79 53.964 1908.09 56.26 1910.92 56.26C1913.79 56.26 1916.04 53.964 1916.04 51.135C1916.04 48.306 1913.79 46.01 1910.92 46.01C1908.09 46.01 1905.79 48.306 1905.79 51.135ZM1916.7 42.115V60.155C1919.44 58.474 1921.62 55.071 1921.62 51.135C1921.62 47.199 1919.44 43.796 1916.7 42.115ZM1925.22 51.135C1925.22 44.862 1930.31 39.778 1936.58 39.778C1941.58 39.778 1945.81 42.976 1947.32 47.486L1934 55.563C1934.78 56.014 1935.64 56.26 1936.58 56.26C1938.63 56.26 1940.39 55.03 1941.21 53.308L1941.83 53.595C1940.93 55.563 1938.92 56.916 1936.58 56.916C1935.39 56.916 1934.29 56.547 1933.38 55.932L1928.96 58.638C1930.88 60.606 1933.59 61.836 1936.58 61.836C1940.85 61.836 1944.58 59.294 1946.3 55.645L1946.87 55.932C1945.07 59.827 1941.13 62.492 1936.58 62.492C1930.31 62.492 1925.22 57.408 1925.22 51.135ZM1925.88 51.135C1925.88 52.324 1926.09 53.431 1926.41 54.497L1930.84 51.791C1930.8 51.586 1930.8 51.34 1930.8 51.135C1930.8 47.937 1933.38 45.354 1936.58 45.354C1937.77 45.354 1938.92 45.723 1939.82 46.338L1944.21 43.673C1942.28 41.664 1939.57 40.434 1936.58 40.434C1930.68 40.434 1925.88 45.231 1925.88 51.135ZM1926.66 55.112C1927.11 56.219 1927.73 57.244 1928.5 58.146L1932.81 55.522C1931.91 54.743 1931.25 53.677 1930.96 52.488L1926.66 55.112ZM1931.46 51.135V51.422L1939.21 46.707C1938.43 46.256 1937.52 46.01 1936.58 46.01C1933.75 46.01 1931.46 48.306 1931.46 51.135ZM1931.54 52.16C1931.78 53.349 1932.48 54.415 1933.42 55.153L1941.62 50.151C1941.38 48.962 1940.72 47.896 1939.78 47.117L1931.54 52.16ZM1940.39 46.789C1941.3 47.568 1941.95 48.593 1942.2 49.823L1946.54 47.158C1946.09 46.051 1945.44 45.067 1944.7 44.165L1940.39 46.789Z" fill="white"/>
</g>
<defs>
<clipPath id="clip0_12_13">
<rect width="1940" height="343" fill="white"/>
</clipPath>
</defs>
</svg>
